<?xml version="1.0" encoding="UTF-8"?>
<svg width="159px" height="159px" viewBox="0 0 159 159" version="1.1" xmlns="http://www.w3.org/2000/svg" xmlns:xlink="http://www.w3.org/1999/xlink">
    <!-- Generator: Sketch 54.1 (76490) - https://sketchapp.com -->
    <title>1</title>
    <desc>Created with Sketch.</desc>
    <defs>
        <path d="M0.388,80.185 C0.388,124.012 35.917,159.54 79.744,159.54 L79.744,159.54 C123.57,159.54 159.098,124.012 159.098,80.185 L159.098,80.185 C159.098,36.358 123.57,0.83 79.744,0.83 L79.744,0.83 C35.917,0.83 0.388,36.358 0.388,80.185" id="path-1"></path>
        <path d="M0.388,80.185 C0.388,124.012 35.917,159.54 79.744,159.54 L79.744,159.54 C123.57,159.54 159.098,124.012 159.098,80.185 L159.098,80.185 C159.098,36.358 123.57,0.83 79.744,0.83 L79.744,0.83 C35.917,0.83 0.388,36.358 0.388,80.185" id="path-3"></path>
        <path d="M0.388,80.185 C0.388,124.012 35.917,159.54 79.744,159.54 L79.744,159.54 C123.57,159.54 159.098,124.012 159.098,80.185 L159.098,80.185 C159.098,36.358 123.57,0.83 79.744,0.83 L79.744,0.83 C35.917,0.83 0.388,36.358 0.388,80.185" id="path-5"></path>
        <path d="M0.388,80.185 C0.388,124.012 35.917,159.54 79.744,159.54 L79.744,159.54 C123.57,159.54 159.098,124.012 159.098,80.185 L159.098,80.185 C159.098,36.358 123.57,0.83 79.744,0.83 L79.744,0.83 C35.917,0.83 0.388,36.358 0.388,80.185" id="path-7"></path>
        <path d="M0.388,80.185 C0.388,124.012 35.917,159.54 79.744,159.54 L79.744,159.54 C123.57,159.54 159.098,124.012 159.098,80.185 L159.098,80.185 C159.098,36.358 123.57,0.83 79.744,0.83 L79.744,0.83 C35.917,0.83 0.388,36.358 0.388,80.185" id="path-9"></path>
        <path d="M0.388,80.185 C0.388,124.012 35.917,159.54 79.744,159.54 L79.744,159.54 C123.57,159.54 159.098,124.012 159.098,80.185 L159.098,80.185 C159.098,36.358 123.57,0.83 79.744,0.83 L79.744,0.83 C35.917,0.83 0.388,36.358 0.388,80.185" id="path-11"></path>
        <path d="M0.388,80.185 C0.388,124.012 35.917,159.54 79.744,159.54 L79.744,159.54 C123.57,159.54 159.098,124.012 159.098,80.185 L159.098,80.185 C159.098,36.358 123.57,0.83 79.744,0.83 L79.744,0.83 C35.917,0.83 0.388,36.358 0.388,80.185" id="path-13"></path>
        <path d="M0.388,80.185 C0.388,124.012 35.917,159.54 79.744,159.54 L79.744,159.54 C123.57,159.54 159.098,124.012 159.098,80.185 L159.098,80.185 C159.098,36.358 123.57,0.83 79.744,0.83 L79.744,0.83 C35.917,0.83 0.388,36.358 0.388,80.185" id="path-15"></path>
        <path d="M0.388,80.185 C0.388,124.012 35.917,159.54 79.744,159.54 L79.744,159.54 C123.57,159.54 159.098,124.012 159.098,80.185 L159.098,80.185 C159.098,36.358 123.57,0.83 79.744,0.83 L79.744,0.83 C35.917,0.83 0.388,36.358 0.388,80.185" id="path-17"></path>
        <path d="M0.388,80.185 C0.388,124.012 35.917,159.54 79.744,159.54 L79.744,159.54 C123.57,159.54 159.098,124.012 159.098,80.185 L159.098,80.185 C159.098,36.358 123.57,0.83 79.744,0.83 L79.744,0.83 C35.917,0.83 0.388,36.358 0.388,80.185" id="path-19"></path>
        <path d="M0.388,80.185 C0.388,124.012 35.917,159.54 79.744,159.54 L79.744,159.54 C123.57,159.54 159.098,124.012 159.098,80.185 L159.098,80.185 C159.098,36.358 123.57,0.83 79.744,0.83 L79.744,0.83 C35.917,0.83 0.388,36.358 0.388,80.185" id="path-21"></path>
        <path d="M79.744,159.54 C123.57,159.54 159.098,124.012 159.098,80.185 C159.098,36.358 123.57,0.83 79.744,0.83 C35.917,0.83 0.388,36.358 0.388,80.185 C0.388,124.012 35.917,159.54 79.744,159.54 Z" id="path-23"></path>
    </defs>
    <g id="Page-1" stroke="none" stroke-width="1" fill="none" fill-rule="evenodd">
        <g id="Artboard-2" transform="translate(-35.000000, -56.000000)">
            <g id="1" transform="translate(35.000000, 55.000000)">
                <path d="M158.7061,80.4897 C158.7061,124.1087 123.3461,159.4687 79.7281,159.4687 C36.1091,159.4687 0.7491,124.1087 0.7491,80.4897 C0.7491,36.8717 36.1091,1.5117 79.7281,1.5117 C123.3461,1.5117 158.7061,36.8717 158.7061,80.4897" id="Fill-1" fill="#F8F8F9"></path>
                <g id="Group-39" transform="translate(0.000000, 0.060000)">
                    <g id="Group-5">
                        <mask id="mask-2" fill="white">
                            <use xlink:href="#path-1"></use>
                        </mask>
                        <g id="Clip-4"></g>
                        <path d="M103.4654,167.6543 L56.0214,167.6543 C48.5984,167.6543 42.5804,161.6363 42.5804,154.2133 L42.5804,133.9143 C42.5804,126.4913 48.5984,120.4723 56.0214,120.4723 L103.4654,120.4723 C110.8884,120.4723 116.9064,126.4913 116.9064,133.9143 L116.9064,154.2133 C116.9064,161.6363 110.8884,167.6543 103.4654,167.6543" id="Fill-3" fill="#0B2F0F" mask="url(#mask-2)"></path>
                    </g>
                    <g id="Group-8">
                        <mask id="mask-4" fill="white">
                            <use xlink:href="#path-3"></use>
                        </mask>
                        <g id="Clip-7"></g>
                        <path d="M74.0303,108.8525 L85.4563,108.8525 C89.0713,108.8525 92.0023,111.7835 92.0023,115.3985 L92.0023,137.5175 C92.0023,141.1325 89.0713,144.0635 85.4563,144.0635 L74.0303,144.0635 C70.4153,144.0635 67.4843,141.1325 67.4843,137.5175 L67.4843,115.3985 C67.4843,111.7835 70.4153,108.8525 74.0303,108.8525" id="Fill-6" fill="#F2B285" mask="url(#mask-4)"></path>
                    </g>
                    <g id="Group-11">
                        <mask id="mask-6" fill="white">
                            <use xlink:href="#path-5"></use>
                        </mask>
                        <g id="Clip-10"></g>
                        <path d="M49.0161,88.2891 C49.0161,93.7341 44.6021,98.1481 39.1571,98.1481 C33.7121,98.1481 29.2981,93.7341 29.2981,88.2891 C29.2981,82.8441 33.7121,78.4301 39.1571,78.4301 C44.6021,78.4301 49.0161,82.8441 49.0161,88.2891" id="Fill-9" fill="#8C6144" mask="url(#mask-6)"></path>
                    </g>
                    <g id="Group-14">
                        <mask id="mask-8" fill="white">
                            <use xlink:href="#path-7"></use>
                        </mask>
                        <g id="Clip-13"></g>
                        <path d="M129.7495,90.0439 C129.7495,95.4889 125.3355,99.9029 119.8905,99.9029 C114.4455,99.9029 110.0315,95.4889 110.0315,90.0439 C110.0315,84.5989 114.4455,80.1849 119.8905,80.1849 C125.3355,80.1849 129.7495,84.5989 129.7495,90.0439" id="Fill-12" fill="#8C6144" mask="url(#mask-8)"></path>
                    </g>
                    <g id="Group-17">
                        <mask id="mask-10" fill="white">
                            <use xlink:href="#path-9"></use>
                        </mask>
                        <g id="Clip-16"></g>
                        <path d="M124.7251,83.2852 C124.7251,108.1282 104.5861,128.2662 79.7431,128.2662 C54.9001,128.2662 34.7611,108.1282 34.7611,83.2852 C34.7611,58.4422 54.9001,38.3032 79.7431,38.3032 C104.5861,38.3032 124.7251,58.4422 124.7251,83.2852" id="Fill-15" fill="#FCC192" mask="url(#mask-10)"></path>
                    </g>
                    <g id="Group-20">
                        <mask id="mask-12" fill="white">
                            <use xlink:href="#path-11"></use>
                        </mask>
                        <g id="Clip-19"></g>
                        <path d="M63.1582,86.9404 C63.1582,90.5094 60.2652,93.4024 56.6962,93.4024 C53.1272,93.4024 50.2342,90.5094 50.2342,86.9404 C50.2342,83.3724 53.1272,80.4784 56.6962,80.4784 C60.2652,80.4784 63.1582,83.3724 63.1582,86.9404" id="Fill-18" fill="#010202" mask="url(#mask-12)"></path>
                    </g>
                    <g id="Group-23">
                        <mask id="mask-14" fill="white">
                            <use xlink:href="#path-13"></use>
                        </mask>
                        <g id="Clip-22"></g>
                        <path d="M109.2525,86.9404 C109.2525,90.5094 106.3595,93.4024 102.7905,93.4024 C99.2215,93.4024 96.3285,90.5094 96.3285,86.9404 C96.3285,83.3724 99.2215,80.4784 102.7905,80.4784 C106.3595,80.4784 109.2525,83.3724 109.2525,86.9404" id="Fill-21" fill="#010202" mask="url(#mask-14)"></path>
                    </g>
                    <g id="Group-26">
                        <mask id="mask-16" fill="white">
                            <use xlink:href="#path-15"></use>
                        </mask>
                        <g id="Clip-25"></g>
                        <path d="M82.294,96.7168 L77.162,96.7168 C75.285,96.7168 73.763,95.1958 73.763,93.3178 L73.763,79.9008 C73.763,78.0238 75.285,76.5018 77.162,76.5018 L82.294,76.5018 C84.171,76.5018 85.693,78.0238 85.693,79.9008 L85.693,93.3178 C85.693,95.1958 84.171,96.7168 82.294,96.7168" id="Fill-24" fill="#F8AB76" mask="url(#mask-16)"></path>
                    </g>
                    <g id="Group-29">
                        <mask id="mask-18" fill="white">
                            <use xlink:href="#path-17"></use>
                        </mask>
                        <g id="Clip-28"></g>
                        <path d="M118.5694,48.2686 C118.5694,48.2686 128.1454,51.2236 128.8594,71.5986 C129.5714,91.9736 128.4514,99.1056 126.0064,98.7996 C123.5614,98.4946 123.8194,88.0006 123.8194,88.0006 C123.8194,88.0006 118.5694,89.5296 117.3464,76.8966 C116.1244,64.2636 118.3654,60.3926 116.3274,60.2896 C114.2904,60.1886 102.2694,61.3096 100.8424,60.1886 C99.4164,59.0676 110.4194,46.9446 110.7244,47.0466 C111.0304,47.1486 118.5694,48.2686 118.5694,48.2686" id="Fill-27" fill="#111D2A" mask="url(#mask-18)"></path>
                    </g>
                    <g id="Group-32">
                        <mask id="mask-20" fill="white">
                            <use xlink:href="#path-19"></use>
                        </mask>
                        <g id="Clip-31"></g>
                        <path d="M40.8013,46.7969 C40.8013,46.7969 31.2253,49.7509 30.5113,70.1259 C29.7993,90.5009 30.9193,97.6329 33.3643,97.3269 C35.8093,97.0219 35.5513,86.5279 35.5513,86.5279 C35.5513,86.5279 40.8013,88.0569 42.0243,75.4239 C43.2463,62.7909 41.0053,58.9199 43.0433,58.8179 C45.0803,58.7159 57.1013,59.8369 58.5283,58.7159 C59.9543,57.5959 48.9513,45.4719 48.6463,45.5739 C48.3403,45.6759 40.8013,46.7969 40.8013,46.7969" id="Fill-30" fill="#000407" mask="url(#mask-20)"></path>
                    </g>
                    <g id="Group-35">
                        <mask id="mask-22" fill="white">
                            <use xlink:href="#path-21"></use>
                        </mask>
                        <g id="Clip-34"></g>
                        <path d="M85.4815,25.9297 C85.4815,25.9297 43.4815,22.2237 38.5415,42.8117 C33.5995,63.3997 71.0695,63.3997 99.0695,60.9287 C127.0695,58.4577 133.2465,40.7527 126.6575,27.5757 C120.0695,14.4007 106.4815,10.2827 104.8345,11.1057 C103.1875,11.9297 105.2465,20.9887 105.2465,20.9887 C105.2465,20.9887 94.1285,14.4007 93.7165,15.6347 C93.3055,16.8697 91.6545,26.1807 85.4815,25.9297" id="Fill-33" fill="#010202" mask="url(#mask-22)"></path>
                    </g>
                    <g id="Group-38">
                        <mask id="mask-24" fill="white">
                            <use xlink:href="#path-23"></use>
                        </mask>
                        <g id="Clip-37"></g>
                        <path d="M69.4883,103.8369 L89.9673,103.8369 C89.9673,103.8369 87.3463,114.4859 79.7283,114.4859 C72.1093,114.4859 69.4883,103.8369 69.4883,103.8369" id="Fill-36" fill-opacity="0.994891827" fill="#BA4021" mask="url(#mask-24)"></path>
                    </g>
                </g>
            </g>
        </g>
    </g>
</svg>