<?xml version="1.0" encoding="UTF-8"?>
<svg width="158px" height="160px" viewBox="0 0 158 160" version="1.1" xmlns="http://www.w3.org/2000/svg" xmlns:xlink="http://www.w3.org/1999/xlink">
    <!-- Generator: Sketch 53.2 (72643) - https://sketchapp.com -->
    <title>5</title>
    <desc>Created with Sketch.</desc>
    <defs>
        <path d="M0.103,80.069 C0.103,123.896 35.63,159.424 79.457,159.424 L79.457,159.424 C123.284,159.424 158.812,123.896 158.812,80.069 L158.812,80.069 C158.812,36.243 123.284,0.714 79.457,0.714 L79.457,0.714 C35.63,0.714 0.103,36.243 0.103,80.069" id="path-1"></path>
        <path d="M0.103,80.069 C0.103,123.896 35.63,159.424 79.457,159.424 L79.457,159.424 C123.284,159.424 158.812,123.896 158.812,80.069 L158.812,80.069 C158.812,36.243 123.284,0.714 79.457,0.714 L79.457,0.714 C35.63,0.714 0.103,36.243 0.103,80.069" id="path-3"></path>
        <path d="M0.103,80.069 C0.103,123.896 35.63,159.424 79.457,159.424 L79.457,159.424 C123.284,159.424 158.812,123.896 158.812,80.069 L158.812,80.069 C158.812,36.243 123.284,0.714 79.457,0.714 L79.457,0.714 C35.63,0.714 0.103,36.243 0.103,80.069 L0.103,80.069 Z" id="path-5"></path>
        <path d="M0.103,80.069 C0.103,123.896 35.63,159.424 79.457,159.424 L79.457,159.424 C123.284,159.424 158.812,123.896 158.812,80.069 L158.812,80.069 C158.812,36.243 123.284,0.714 79.457,0.714 L79.457,0.714 C35.63,0.714 0.103,36.243 0.103,80.069" id="path-7"></path>
        <path d="M0.103,80.069 C0.103,123.896 35.63,159.424 79.457,159.424 L79.457,159.424 C123.284,159.424 158.812,123.896 158.812,80.069 L158.812,80.069 C158.812,36.243 123.284,0.714 79.457,0.714 L79.457,0.714 C35.63,0.714 0.103,36.243 0.103,80.069" id="path-9"></path>
        <path d="M0.103,80.069 C0.103,123.896 35.63,159.424 79.457,159.424 L79.457,159.424 C123.284,159.424 158.812,123.896 158.812,80.069 L158.812,80.069 C158.812,36.243 123.284,0.714 79.457,0.714 L79.457,0.714 C35.63,0.714 0.103,36.243 0.103,80.069" id="path-11"></path>
        <path d="M0.103,80.069 C0.103,123.896 35.63,159.424 79.457,159.424 L79.457,159.424 C123.284,159.424 158.812,123.896 158.812,80.069 L158.812,80.069 C158.812,36.243 123.284,0.714 79.457,0.714 L79.457,0.714 C35.63,0.714 0.103,36.243 0.103,80.069" id="path-13"></path>
        <path d="M0.103,80.069 C0.103,123.896 35.63,159.424 79.457,159.424 L79.457,159.424 C123.284,159.424 158.812,123.896 158.812,80.069 L158.812,80.069 C158.812,36.243 123.284,0.714 79.457,0.714 L79.457,0.714 C35.63,0.714 0.103,36.243 0.103,80.069" id="path-15"></path>
        <path d="M0.103,80.069 C0.103,123.896 35.63,159.424 79.457,159.424 L79.457,159.424 C123.284,159.424 158.812,123.896 158.812,80.069 L158.812,80.069 C158.812,36.243 123.284,0.714 79.457,0.714 L79.457,0.714 C35.63,0.714 0.103,36.243 0.103,80.069" id="path-17"></path>
        <path d="M0.103,80.069 C0.103,123.896 35.63,159.424 79.457,159.424 L79.457,159.424 C123.284,159.424 158.812,123.896 158.812,80.069 L158.812,80.069 C158.812,36.243 123.284,0.714 79.457,0.714 L79.457,0.714 C35.63,0.714 0.103,36.243 0.103,80.069" id="path-19"></path>
        <path d="M0.103,80.069 C0.103,123.896 35.63,159.424 79.457,159.424 L79.457,159.424 C123.284,159.424 158.812,123.896 158.812,80.069 L158.812,80.069 C158.812,36.243 123.284,0.714 79.457,0.714 L79.457,0.714 C35.63,0.714 0.103,36.243 0.103,80.069" id="path-21"></path>
        <path d="M79.457,159.424 C123.284,159.424 158.812,123.896 158.812,80.069 C158.812,36.243 123.284,0.714 79.457,0.714 C35.63,0.714 0.103,36.243 0.103,80.069 C0.103,123.896 35.63,159.424 79.457,159.424 Z" id="path-23"></path>
    </defs>
    <g id="Page-1" stroke="none" stroke-width="1" fill="none" fill-rule="evenodd">
        <g id="Artboard-2" transform="translate(-1132.000000, -50.000000)">
            <g id="5" transform="translate(1132.000000, 49.000000)">
                <g id="Group-5" transform="translate(0.000000, 0.711000)">
                    <path d="M157.9562,79.7758 C157.9562,123.3938 122.5972,158.7548 78.9782,158.7548 C35.3592,158.7548 0.0002,123.3938 0.0002,79.7758 C0.0002,36.1578 35.3592,0.7968 78.9782,0.7968 C122.5972,0.7968 157.9562,36.1578 157.9562,79.7758" id="Fill-1" fill="#F8F8F9"></path>
                    <path d="M45.8136,94.1791 C45.8136,99.6231 41.3996,104.0371 35.9546,104.0371 C30.5096,104.0371 26.0956,99.6231 26.0956,94.1791 C26.0956,88.7341 30.5096,84.3201 35.9546,84.3201 C41.3996,84.3201 45.8136,88.7341 45.8136,94.1791" id="Fill-3" fill="#8C6144"></path>
                </g>
                <g id="Group-42" transform="translate(0.000000, 0.711000)">
                    <g id="Group-8">
                        <mask id="mask-2" fill="white">
                            <use xlink:href="#path-1"></use>
                        </mask>
                        <g id="Clip-7"></g>
                        <path d="M102.7155,169.0004 L55.2725,169.0004 C47.8485,169.0004 41.8305,162.9814 41.8305,155.5594 L41.8305,135.2604 C41.8305,127.8364 47.8485,121.8184 55.2725,121.8184 L102.7155,121.8184 C110.1385,121.8184 116.1565,127.8364 116.1565,135.2604 L116.1565,155.5594 C116.1565,162.9814 110.1385,169.0004 102.7155,169.0004" id="Fill-6" fill="#313779" mask="url(#mask-2)"></path>
                    </g>
                    <g id="Group-11">
                        <mask id="mask-4" fill="white">
                            <use xlink:href="#path-3"></use>
                        </mask>
                        <g id="Clip-10"></g>
                        <path d="M73.2809,110.1987 L84.7069,110.1987 C88.3219,110.1987 91.2529,113.1297 91.2529,116.7447 L91.2529,138.8637 C91.2529,142.4787 88.3219,145.4097 84.7069,145.4097 L73.2809,145.4097 C69.6659,145.4097 66.7349,142.4787 66.7349,138.8637 L66.7349,116.7447 C66.7349,113.1297 69.6659,110.1987 73.2809,110.1987" id="Fill-9" fill="#8C6144" mask="url(#mask-4)"></path>
                    </g>
                    <g id="Group-14">
                        <mask id="mask-6" fill="white">
                            <use xlink:href="#path-5"></use>
                        </mask>
                        <g id="Clip-13"></g>
                        <path d="M73.2809,110.1987 L84.7069,110.1987 C88.3219,110.1987 91.2529,113.1297 91.2529,116.7447 L91.2529,138.8637 C91.2529,142.4787 88.3219,145.4097 84.7069,145.4097 L73.2809,145.4097 C69.6659,145.4097 66.7349,142.4787 66.7349,138.8637 L66.7349,116.7447 C66.7349,113.1297 69.6659,110.1987 73.2809,110.1987 Z" id="Stroke-12" stroke="#FEFEFE" stroke-width="3.51" mask="url(#mask-6)"></path>
                    </g>
                    <g id="Group-17">
                        <mask id="mask-8" fill="white">
                            <use xlink:href="#path-7"></use>
                        </mask>
                        <g id="Clip-16"></g>
                        <path d="M109.7331,89.8578 L49.1811,89.8578 C38.6841,89.8578 30.1741,81.3478 30.1741,70.8508 L30.1741,42.1488 C30.1741,31.6518 38.6841,23.1418 49.1811,23.1418 L109.7331,23.1418 C120.2301,23.1418 128.7401,31.6518 128.7401,42.1488 L128.7401,70.8508 C128.7401,81.3478 120.2301,89.8578 109.7331,89.8578" id="Fill-15" fill="#000000" mask="url(#mask-8)"></path>
                    </g>
                    <g id="Group-20">
                        <mask id="mask-10" fill="white">
                            <use xlink:href="#path-9"></use>
                        </mask>
                        <g id="Clip-19"></g>
                        <path d="M131.3732,94.1791 C131.3732,99.6231 126.9592,104.0371 121.5142,104.0371 C116.0692,104.0371 111.6552,99.6231 111.6552,94.1791 C111.6552,88.7341 116.0692,84.3201 121.5142,84.3201 C126.9592,84.3201 131.3732,88.7341 131.3732,94.1791" id="Fill-18" fill="#8C6144" mask="url(#mask-10)"></path>
                    </g>
                    <g id="Group-23">
                        <mask id="mask-12" fill="white">
                            <use xlink:href="#path-11"></use>
                        </mask>
                        <g id="Clip-22"></g>
                        <path d="M123.9758,84.6313 C123.9758,109.4743 103.8368,129.6123 78.9938,129.6123 C54.1508,129.6123 34.0118,109.4743 34.0118,84.6313 C34.0118,59.7873 54.1508,39.6493 78.9938,39.6493 C103.8368,39.6493 123.9758,59.7873 123.9758,84.6313" id="Fill-21" fill="#B07D55" mask="url(#mask-12)"></path>
                    </g>
                    <g id="Group-26">
                        <mask id="mask-14" fill="white">
                            <use xlink:href="#path-13"></use>
                        </mask>
                        <g id="Clip-25"></g>
                        <path d="M60.5763,70.4916 L50.5423,70.4916 C49.5143,70.4916 48.6803,69.6586 48.6803,68.6306 L48.6803,65.8186 C48.6803,64.7906 49.5143,63.9576 50.5423,63.9576 L60.5763,63.9576 C61.6043,63.9576 62.4383,64.7906 62.4383,65.8186 L62.4383,68.6306 C62.4383,69.6586 61.6043,70.4916 60.5763,70.4916" id="Fill-24" fill="#121212" mask="url(#mask-14)"></path>
                    </g>
                    <g id="Group-29">
                        <mask id="mask-16" fill="white">
                            <use xlink:href="#path-15"></use>
                        </mask>
                        <g id="Clip-28"></g>
                        <path d="M107.0578,70.4916 L97.0238,70.4916 C95.9958,70.4916 95.1618,69.6586 95.1618,68.6306 L95.1618,65.8186 C95.1618,64.7906 95.9958,63.9576 97.0238,63.9576 L107.0578,63.9576 C108.0858,63.9576 108.9198,64.7906 108.9198,65.8186 L108.9198,68.6306 C108.9198,69.6586 108.0858,70.4916 107.0578,70.4916" id="Fill-27" fill="#121212" mask="url(#mask-16)"></path>
                    </g>
                    <g id="Group-32">
                        <mask id="mask-18" fill="white">
                            <use xlink:href="#path-17"></use>
                        </mask>
                        <g id="Clip-31"></g>
                        <path d="M62.4089,88.2865 C62.4089,91.8545 59.5159,94.7485 55.9469,94.7485 C52.3779,94.7485 49.4849,91.8545 49.4849,88.2865 C49.4849,84.7175 52.3779,81.8245 55.9469,81.8245 C59.5159,81.8245 62.4089,84.7175 62.4089,88.2865" id="Fill-30" fill="#010202" mask="url(#mask-18)"></path>
                    </g>
                    <g id="Group-35">
                        <mask id="mask-20" fill="white">
                            <use xlink:href="#path-19"></use>
                        </mask>
                        <g id="Clip-34"></g>
                        <path d="M108.5031,88.2865 C108.5031,91.8545 105.6091,94.7485 102.0411,94.7485 C98.4721,94.7485 95.5791,91.8545 95.5791,88.2865 C95.5791,84.7175 98.4721,81.8245 102.0411,81.8245 C105.6091,81.8245 108.5031,84.7175 108.5031,88.2865" id="Fill-33" fill="#010202" mask="url(#mask-20)"></path>
                    </g>
                    <g id="Group-38">
                        <mask id="mask-22" fill="white">
                            <use xlink:href="#path-21"></use>
                        </mask>
                        <g id="Clip-37"></g>
                        <path d="M81.5446,98.0619 L76.4116,98.0619 C74.5346,98.0619 73.0136,96.5409 73.0136,94.6639 L73.0136,81.2469 C73.0136,79.3699 74.5346,77.8479 76.4116,77.8479 L81.5446,77.8479 C83.4216,77.8479 84.9426,79.3699 84.9426,81.2469 L84.9426,94.6639 C84.9426,96.5409 83.4216,98.0619 81.5446,98.0619" id="Fill-36" fill="#8C6144" mask="url(#mask-22)"></path>
                    </g>
                    <g id="Group-41">
                        <mask id="mask-24" fill="white">
                            <use xlink:href="#path-23"></use>
                        </mask>
                        <g id="Clip-40"></g>
                        <path d="M89.2174,105.183 C89.2174,105.183 86.5964,115.832 78.9784,115.832 C71.3604,115.832 68.7384,105.183 68.7384,105.183 L89.2174,105.183 Z" id="Fill-39" fill="#CA583C" mask="url(#mask-24)"></path>
                    </g>
                </g>
            </g>
        </g>
    </g>
</svg>