<?xml version="1.0" encoding="UTF-8"?>
<svg width="162px" height="170px" viewBox="0 0 162 170" version="1.1" xmlns="http://www.w3.org/2000/svg" xmlns:xlink="http://www.w3.org/1999/xlink">
    <!-- Generator: Sketch 54.1 (76490) - https://sketchapp.com -->
    <title>6</title>
    <desc>Created with Sketch.</desc>
    <defs>
        <path d="M0.218,40.852 C0.218,62.89 18.104,80.755 40.165,80.755 L40.165,80.755 C62.228,80.755 80.113,62.89 80.113,40.852 L80.113,40.852 C80.113,18.814 62.228,0.949 40.165,0.949 L40.165,0.949 C18.104,0.949 0.218,18.814 0.218,40.852 L0.218,40.852 Z" id="path-1"></path>
        <path d="M0.205,79.396 C0.205,123.223 35.734,158.751 79.561,158.751 L79.561,158.751 C123.386,158.751 158.916,123.223 158.916,79.396 L158.916,79.396 C158.916,35.57 123.386,0.042 79.561,0.042 L79.561,0.042 C35.734,0.042 0.205,35.57 0.205,79.396" id="path-3"></path>
        <path d="M0.205,79.396 C0.205,123.223 35.734,158.751 79.561,158.751 L79.561,158.751 C123.386,158.751 158.916,123.223 158.916,79.396 L158.916,79.396 C158.916,35.57 123.386,0.042 79.561,0.042 L79.561,0.042 C35.734,0.042 0.205,35.57 0.205,79.396" id="path-5"></path>
        <path d="M0.008,19.021 C0.008,29.332 8.375,37.69 18.696,37.69 L18.696,37.69 C29.019,37.69 37.386,29.332 37.386,19.021 L37.386,19.021 C37.386,8.711 29.019,0.354 18.696,0.354 L18.696,0.354 C8.375,0.354 0.008,8.711 0.008,19.021 L0.008,19.021 Z" id="path-7"></path>
        <path d="M0.908,19.421 C0.908,29.733 9.274,38.09 19.596,38.09 L19.596,38.09 C29.918,38.09 38.285,29.733 38.285,19.421 L38.285,19.421 C38.285,9.112 29.918,0.754 19.596,0.754 L19.596,0.754 C9.274,0.754 0.908,9.112 0.908,19.421 L0.908,19.421 Z" id="path-9"></path>
        <path d="M0.205,79.396 C0.205,123.223 35.734,158.751 79.561,158.751 L79.561,158.751 C123.386,158.751 158.916,123.223 158.916,79.396 L158.916,79.396 C158.916,35.57 123.386,0.042 79.561,0.042 L79.561,0.042 C35.734,0.042 0.205,35.57 0.205,79.396" id="path-11"></path>
        <path d="M0.205,79.396 C0.205,123.223 35.734,158.751 79.561,158.751 L79.561,158.751 C123.386,158.751 158.916,123.223 158.916,79.396 L158.916,79.396 C158.916,35.57 123.386,0.042 79.561,0.042 L79.561,0.042 C35.734,0.042 0.205,35.57 0.205,79.396" id="path-13"></path>
        <path d="M0.205,79.396 C0.205,123.223 35.734,158.751 79.561,158.751 L79.561,158.751 C123.386,158.751 158.916,123.223 158.916,79.396 L158.916,79.396 C158.916,35.57 123.386,0.042 79.561,0.042 L79.561,0.042 C35.734,0.042 0.205,35.57 0.205,79.396" id="path-15"></path>
        <path d="M0.205,79.396 C0.205,123.223 35.734,158.751 79.561,158.751 L79.561,158.751 C123.386,158.751 158.916,123.223 158.916,79.396 L158.916,79.396 C158.916,35.57 123.386,0.042 79.561,0.042 L79.561,0.042 C35.734,0.042 0.205,35.57 0.205,79.396" id="path-17"></path>
        <path d="M0.205,79.396 C0.205,123.223 35.734,158.751 79.561,158.751 L79.561,158.751 C123.386,158.751 158.916,123.223 158.916,79.396 L158.916,79.396 C158.916,35.57 123.386,0.042 79.561,0.042 L79.561,0.042 C35.734,0.042 0.205,35.57 0.205,79.396" id="path-19"></path>
        <path d="M0.205,79.396 C0.205,123.223 35.734,158.751 79.561,158.751 L79.561,158.751 C123.386,158.751 158.916,123.223 158.916,79.396 L158.916,79.396 C158.916,35.57 123.386,0.042 79.561,0.042 L79.561,0.042 C35.734,0.042 0.205,35.57 0.205,79.396" id="path-21"></path>
        <path d="M0.205,79.396 C0.205,123.223 35.734,158.751 79.561,158.751 L79.561,158.751 C123.386,158.751 158.916,123.223 158.916,79.396 L158.916,79.396 C158.916,35.57 123.386,0.042 79.561,0.042 L79.561,0.042 C35.734,0.042 0.205,35.57 0.205,79.396" id="path-23"></path>
        <path d="M0.22,26.851 C0.22,41.415 12.038,53.221 26.618,53.221 L26.618,53.221 C41.198,53.221 53.015,41.415 53.015,26.851 L53.015,26.851 C53.015,12.289 41.198,0.483 26.618,0.483 L26.618,0.483 C12.038,0.483 0.22,12.289 0.22,26.851 L0.22,26.851 Z" id="path-25"></path>
        <path d="M0.008,19.086 C0.008,29.396 8.375,37.754 18.696,37.754 L18.696,37.754 C29.019,37.754 37.386,29.396 37.386,19.086 L37.386,19.086 C37.386,8.776 29.019,0.418 18.696,0.418 L18.696,0.418 C8.375,0.418 0.008,8.776 0.008,19.086 L0.008,19.086 Z" id="path-27"></path>
        <path d="M0.205,79.396 C0.205,123.223 35.734,158.751 79.561,158.751 L79.561,158.751 C123.386,158.751 158.916,123.223 158.916,79.396 L158.916,79.396 C158.916,35.57 123.386,0.042 79.561,0.042 L79.561,0.042 C35.734,0.042 0.205,35.57 0.205,79.396" id="path-29"></path>
        <path d="M0.205,79.396 C0.205,123.223 35.734,158.751 79.561,158.751 L79.561,158.751 C123.386,158.751 158.916,123.223 158.916,79.396 L158.916,79.396 C158.916,35.57 123.386,0.042 79.561,0.042 L79.561,0.042 C35.734,0.042 0.205,35.57 0.205,79.396" id="path-31"></path>
    </defs>
    <g id="Page-1" stroke="none" stroke-width="1" fill="none" fill-rule="evenodd">
        <g id="Artboard-2" transform="translate(-910.000000, -45.000000)">
            <g id="6" transform="translate(910.000000, 44.000000)">
                <path d="M161.5234,91.9999 C161.5234,135.6179 126.1634,170.9779 82.5444,170.9779 C38.9264,170.9779 3.5664,135.6179 3.5664,91.9999 C3.5664,48.3809 38.9264,13.0209 82.5444,13.0209 C126.1634,13.0209 161.5234,48.3809 161.5234,91.9999" id="Fill-1" fill="#F8F8F9"></path>
                <g id="Group-5" transform="translate(0.000000, 0.330000)">
                    <mask id="mask-2" fill="white">
                        <use xlink:href="#path-1"></use>
                    </mask>
                    <g id="Clip-4"></g>
                    <polygon id="Fill-3" fill="#180302" mask="url(#mask-2)" points="-2.619 83.591 82.951 83.591 82.951 -1.888 -2.619 -1.888"></polygon>
                </g>
                <g id="Group-12" transform="translate(3.000000, 11.330000)">
                    <g id="Group-8">
                        <mask id="mask-4" fill="white">
                            <use xlink:href="#path-3"></use>
                        </mask>
                        <g id="Clip-7"></g>
                        <path d="M103.2822,170.8935 L55.8392,170.8935 C48.4152,170.8935 42.3972,164.8755 42.3972,157.4525 L42.3972,137.1545 C42.3972,129.7305 48.4152,123.7125 55.8392,123.7125 L103.2822,123.7125 C110.7062,123.7125 116.7232,129.7305 116.7232,137.1545 L116.7232,157.4525 C116.7232,164.8755 110.7062,170.8935 103.2822,170.8935" id="Fill-6" fill="#A93029" mask="url(#mask-4)"></path>
                    </g>
                    <g id="Group-11">
                        <mask id="mask-6" fill="white">
                            <use xlink:href="#path-5"></use>
                        </mask>
                        <g id="Clip-10"></g>
                        <path d="M73.8476,112.0927 L85.2736,112.0927 C88.8886,112.0927 91.8196,115.0237 91.8196,118.6387 L91.8196,140.7577 C91.8196,144.3727 88.8886,147.3037 85.2736,147.3037 L73.8476,147.3037 C70.2326,147.3037 67.3016,144.3727 67.3016,140.7577 L67.3016,118.6387 C67.3016,115.0237 70.2326,112.0927 73.8476,112.0927" id="Fill-9" fill="#F2C392" mask="url(#mask-6)"></path>
                    </g>
                </g>
                <g id="Group-15" transform="translate(103.000000, 73.330000)">
                    <mask id="mask-8" fill="white">
                        <use xlink:href="#path-7"></use>
                    </mask>
                    <g id="Clip-14"></g>
                    <polygon id="Fill-13" fill="#0F0E0E" mask="url(#mask-8)" points="-2.83 40.528 40.223 40.528 40.223 -2.483 -2.83 -2.483"></polygon>
                </g>
                <g id="Group-18" transform="translate(18.000000, 74.330000)">
                    <mask id="mask-10" fill="white">
                        <use xlink:href="#path-9"></use>
                    </mask>
                    <g id="Clip-17"></g>
                    <polygon id="Fill-16" fill="#100808" mask="url(#mask-10)" points="-1.93 40.928 41.123 40.928 41.123 -2.083 -1.93 -2.083"></polygon>
                </g>
                <g id="Group-40" transform="translate(3.000000, 11.330000)">
                    <g id="Group-21">
                        <mask id="mask-12" fill="white">
                            <use xlink:href="#path-11"></use>
                        </mask>
                        <g id="Clip-20"></g>
                        <path d="M47.3071,97.6855 C47.3071,103.1305 42.8931,107.5445 37.4481,107.5445 C32.0031,107.5445 27.5891,103.1305 27.5891,97.6855 C27.5891,92.2405 32.0031,87.8265 37.4481,87.8265 C42.8931,87.8265 47.3071,92.2405 47.3071,97.6855" id="Fill-19" fill="#F2CDA6" mask="url(#mask-12)"></path>
                    </g>
                    <g id="Group-24">
                        <mask id="mask-14" fill="white">
                            <use xlink:href="#path-13"></use>
                        </mask>
                        <g id="Clip-23"></g>
                        <path d="M129.1894,97.6855 C129.1894,103.1305 124.7754,107.5445 119.3304,107.5445 C113.8854,107.5445 109.4714,103.1305 109.4714,97.6855 C109.4714,92.2405 113.8854,87.8265 119.3304,87.8265 C124.7754,87.8265 129.1894,92.2405 129.1894,97.6855" id="Fill-22" fill="#E2BF9B" mask="url(#mask-14)"></path>
                    </g>
                    <g id="Group-27">
                        <mask id="mask-16" fill="white">
                            <use xlink:href="#path-15"></use>
                        </mask>
                        <g id="Clip-26"></g>
                        <path d="M124.5429,86.5244 C124.5429,111.3674 104.4029,131.5064 79.5609,131.5064 C54.7179,131.5064 34.5789,111.3674 34.5789,86.5244 C34.5789,61.6814 54.7179,41.5434 79.5609,41.5434 C104.4029,41.5434 124.5429,61.6814 124.5429,86.5244" id="Fill-25" fill="#E7BE91" mask="url(#mask-16)"></path>
                    </g>
                    <g id="Group-30">
                        <mask id="mask-18" fill="white">
                            <use xlink:href="#path-17"></use>
                        </mask>
                        <g id="Clip-29"></g>
                        <path d="M62.9755,90.1806 C62.9755,93.7486 60.0825,96.6426 56.5135,96.6426 C52.9445,96.6426 50.0515,93.7486 50.0515,90.1806 C50.0515,86.6116 52.9445,83.7176 56.5135,83.7176 C60.0825,83.7176 62.9755,86.6116 62.9755,90.1806" id="Fill-28" fill="#010202" mask="url(#mask-18)"></path>
                    </g>
                    <g id="Group-33">
                        <mask id="mask-20" fill="white">
                            <use xlink:href="#path-19"></use>
                        </mask>
                        <g id="Clip-32"></g>
                        <path d="M109.0703,90.1806 C109.0703,93.7486 106.1763,96.6426 102.6073,96.6426 C99.0393,96.6426 96.1453,93.7486 96.1453,90.1806 C96.1453,86.6116 99.0393,83.7176 102.6073,83.7176 C106.1763,83.7176 109.0703,86.6116 109.0703,90.1806" id="Fill-31" fill="#010202" mask="url(#mask-20)"></path>
                    </g>
                    <g id="Group-36">
                        <mask id="mask-22" fill="white">
                            <use xlink:href="#path-21"></use>
                        </mask>
                        <g id="Clip-35"></g>
                        <path d="M69.3056,107.0771 L89.7846,107.0771 C89.7846,107.0771 87.1626,117.7251 79.5446,117.7251 C71.9266,117.7251 69.3056,107.0771 69.3056,107.0771" id="Fill-34" fill="#B10F3C" mask="url(#mask-22)"></path>
                    </g>
                    <g id="Group-39">
                        <mask id="mask-24" fill="white">
                            <use xlink:href="#path-23"></use>
                        </mask>
                        <g id="Clip-38"></g>
                        <path d="M86.081,94.5536 C86.081,98.1636 83.155,101.0896 79.545,101.0896 C75.935,101.0896 73.009,98.1636 73.009,94.5536 C73.009,90.9446 75.935,88.0176 79.545,88.0176 C83.155,88.0176 86.081,90.9446 86.081,94.5536" id="Fill-37" fill="#DCAB78" mask="url(#mask-24)"></path>
                    </g>
                </g>
                <g id="Group-43" transform="translate(57.000000, 15.330000)">
                    <mask id="mask-26" fill="white">
                        <use xlink:href="#path-25"></use>
                    </mask>
                    <g id="Clip-42"></g>
                    <polygon id="Fill-41" fill="#0D0B0B" mask="url(#mask-26)" points="-2.618 56.057 55.853 56.057 55.853 -2.354 -2.618 -2.354"></polygon>
                </g>
                <g id="Group-46" transform="translate(103.000000, 37.330000)">
                    <mask id="mask-28" fill="white">
                        <use xlink:href="#path-27"></use>
                    </mask>
                    <g id="Clip-45"></g>
                    <polygon id="Fill-44" fill="#080101" mask="url(#mask-28)" points="-2.83 40.592 40.223 40.592 40.223 -2.419 -2.83 -2.419"></polygon>
                </g>
                <g id="Group-53" transform="translate(3.000000, 11.330000)">
                    <g id="Group-49">
                        <mask id="mask-30" fill="white">
                            <use xlink:href="#path-29"></use>
                        </mask>
                        <g id="Clip-48"></g>
                        <path d="M38.329,106.9501 C38.329,107.9851 37.49,108.8251 36.454,108.8251 C35.418,108.8251 34.579,107.9851 34.579,106.9501 C34.579,105.9141 35.418,105.0741 36.454,105.0741 C37.49,105.0741 38.329,105.9141 38.329,106.9501" id="Fill-47" fill="#A95D29" mask="url(#mask-30)"></path>
                    </g>
                    <g id="Group-52">
                        <mask id="mask-32" fill="white">
                            <use xlink:href="#path-31"></use>
                        </mask>
                        <g id="Clip-51"></g>
                        <path d="M124.9042,106.9501 C124.9042,107.9851 124.0642,108.8251 123.0282,108.8251 C121.9932,108.8251 121.1532,107.9851 121.1532,106.9501 C121.1532,105.9141 121.9932,105.0741 123.0282,105.0741 C124.0642,105.0741 124.9042,105.9141 124.9042,106.9501" id="Fill-50" fill="#A96729" mask="url(#mask-32)"></path>
                    </g>
                </g>
            </g>
        </g>
    </g>
</svg>