<svg xmlns="http://www.w3.org/2000/svg" xmlns:xlink="http://www.w3.org/1999/xlink" width="158" height="160" viewBox="0 0 158 160">
    <defs>
        <path id="a" d="M.103 80.069c0 43.827 35.527 79.355 79.354 79.355s79.355-35.528 79.355-79.355c0-43.826-35.528-79.355-79.355-79.355C35.63.714.103 36.243.103 80.069"/>
        <path id="c" d="M.103 80.069c0 43.827 35.527 79.355 79.354 79.355s79.355-35.528 79.355-79.355c0-43.826-35.528-79.355-79.355-79.355C35.63.714.103 36.243.103 80.069"/>
        <path id="e" d="M.103 80.069c0 43.827 35.527 79.355 79.354 79.355s79.355-35.528 79.355-79.355c0-43.826-35.528-79.355-79.355-79.355C35.63.714.103 36.243.103 80.069z"/>
        <path id="g" d="M.103 80.069c0 43.827 35.527 79.355 79.354 79.355s79.355-35.528 79.355-79.355c0-43.826-35.528-79.355-79.355-79.355C35.63.714.103 36.243.103 80.069"/>
        <path id="i" d="M.103 80.069c0 43.827 35.527 79.355 79.354 79.355s79.355-35.528 79.355-79.355c0-43.826-35.528-79.355-79.355-79.355C35.63.714.103 36.243.103 80.069"/>
        <path id="k" d="M.103 80.069c0 43.827 35.527 79.355 79.354 79.355s79.355-35.528 79.355-79.355c0-43.826-35.528-79.355-79.355-79.355C35.63.714.103 36.243.103 80.069"/>
        <path id="m" d="M.103 80.069c0 43.827 35.527 79.355 79.354 79.355s79.355-35.528 79.355-79.355c0-43.826-35.528-79.355-79.355-79.355C35.63.714.103 36.243.103 80.069"/>
        <path id="o" d="M.103 80.069c0 43.827 35.527 79.355 79.354 79.355s79.355-35.528 79.355-79.355c0-43.826-35.528-79.355-79.355-79.355C35.63.714.103 36.243.103 80.069"/>
        <path id="q" d="M.103 80.069c0 43.827 35.527 79.355 79.354 79.355s79.355-35.528 79.355-79.355c0-43.826-35.528-79.355-79.355-79.355C35.63.714.103 36.243.103 80.069"/>
        <path id="s" d="M.103 80.069c0 43.827 35.527 79.355 79.354 79.355s79.355-35.528 79.355-79.355c0-43.826-35.528-79.355-79.355-79.355C35.63.714.103 36.243.103 80.069"/>
        <path id="u" d="M.103 80.069c0 43.827 35.527 79.355 79.354 79.355s79.355-35.528 79.355-79.355c0-43.826-35.528-79.355-79.355-79.355C35.63.714.103 36.243.103 80.069"/>
        <path id="w" d="M.103 80.069c0 43.827 35.527 79.355 79.354 79.355s79.355-35.528 79.355-79.355c0-43.826-35.528-79.355-79.355-79.355C35.63.714.103 36.243.103 80.069"/>
    </defs>
    <g fill="none" fill-rule="evenodd">
        <path fill="#F8F8F9" d="M157.956 79.487c0 43.618-35.359 78.979-78.978 78.979C35.36 158.466 0 123.105 0 79.486 0 35.87 35.36.509 78.978.509c43.62 0 78.978 35.36 78.978 78.979"/>
        <path fill="#8C6144" d="M45.814 93.89c0 5.444-4.414 9.858-9.86 9.858-5.444 0-9.858-4.414-9.858-9.858 0-5.445 4.414-9.859 9.859-9.859s9.859 4.414 9.859 9.86"/>
        <g>
            <g transform="translate(0 -.289)">
                <mask id="b" fill="#fff">
                    <use xlink:href="#a"/>
                </mask>
                <path fill="#F0624A" d="M102.716 169H55.273c-7.425 0-13.443-6.019-13.443-13.44v-20.3c0-7.424 6.019-13.442 13.443-13.442h47.443c7.422 0 13.44 6.018 13.44 13.442v20.3c0 7.421-6.018 13.44-13.44 13.44" mask="url(#b)"/>
            </g>
            <g transform="translate(0 -.289)">
                <mask id="d" fill="#fff">
                    <use xlink:href="#c"/>
                </mask>
                <path fill="#8C6144" d="M73.28 110.199h11.427a6.546 6.546 0 0 1 6.546 6.546v22.119a6.546 6.546 0 0 1-6.546 6.546H73.28a6.546 6.546 0 0 1-6.546-6.546v-22.12a6.546 6.546 0 0 1 6.546-6.545" mask="url(#d)"/>
            </g>
            <g transform="translate(0 -.289)">
                <mask id="f" fill="#fff">
                    <use xlink:href="#e"/>
                </mask>
                <path stroke="#FEFEFE" stroke-width="3.51" d="M73.28 110.199h11.427a6.546 6.546 0 0 1 6.546 6.546v22.119a6.546 6.546 0 0 1-6.546 6.546H73.28a6.546 6.546 0 0 1-6.546-6.546v-22.12a6.546 6.546 0 0 1 6.546-6.545z" mask="url(#f)"/>
            </g>
            <g transform="translate(0 -.289)">
                <mask id="h" fill="#fff">
                    <use xlink:href="#g"/>
                </mask>
                <path fill="#703E3E" d="M109.733 89.858H49.181c-10.497 0-19.007-8.51-19.007-19.007V42.149c0-10.497 8.51-19.007 19.007-19.007h60.552c10.497 0 19.007 8.51 19.007 19.007V70.85c0 10.497-8.51 19.007-19.007 19.007" mask="url(#h)"/>
            </g>
            <g transform="translate(0 -.289)">
                <mask id="j" fill="#fff">
                    <use xlink:href="#i"/>
                </mask>
                <path fill="#8C6144" d="M131.373 94.18c0 5.443-4.414 9.857-9.859 9.857s-9.859-4.414-9.859-9.858c0-5.445 4.414-9.859 9.86-9.859 5.444 0 9.858 4.414 9.858 9.86" mask="url(#j)"/>
            </g>
            <g transform="translate(0 -.289)">
                <mask id="l" fill="#fff">
                    <use xlink:href="#k"/>
                </mask>
                <path fill="#B07D55" d="M123.976 84.631c0 24.843-20.14 44.981-44.982 44.981-24.843 0-44.982-20.138-44.982-44.98 0-24.845 20.139-44.983 44.982-44.983s44.982 20.138 44.982 44.982" mask="url(#l)"/>
            </g>
            <g transform="translate(0 -.289)">
                <mask id="n" fill="#fff">
                    <use xlink:href="#m"/>
                </mask>
                <path fill="#703E3E" d="M60.576 70.492H50.542a1.862 1.862 0 0 1-1.862-1.861v-2.812c0-1.028.834-1.861 1.862-1.861h10.034c1.028 0 1.862.833 1.862 1.86v2.813a1.862 1.862 0 0 1-1.862 1.86" mask="url(#n)"/>
            </g>
            <g transform="translate(0 -.289)">
                <mask id="p" fill="#fff">
                    <use xlink:href="#o"/>
                </mask>
                <path fill="#703E3E" d="M107.058 70.492H97.024a1.862 1.862 0 0 1-1.862-1.861v-2.812c0-1.028.834-1.861 1.862-1.861h10.034c1.028 0 1.862.833 1.862 1.86v2.813a1.862 1.862 0 0 1-1.862 1.86" mask="url(#p)"/>
            </g>
            <g transform="translate(0 -.289)">
                <mask id="r" fill="#fff">
                    <use xlink:href="#q"/>
                </mask>
                <path fill="#010202" d="M62.409 88.287a6.462 6.462 0 1 1-12.925-.001 6.462 6.462 0 0 1 12.925 0" mask="url(#r)"/>
            </g>
            <g transform="translate(0 -.289)">
                <mask id="t" fill="#fff">
                    <use xlink:href="#s"/>
                </mask>
                <path fill="#010202" d="M108.503 88.287a6.463 6.463 0 0 1-12.924 0 6.462 6.462 0 1 1 12.924 0" mask="url(#t)"/>
            </g>
            <g transform="translate(0 -.289)">
                <mask id="v" fill="#fff">
                    <use xlink:href="#u"/>
                </mask>
                <path fill="#8C6144" d="M81.545 98.062h-5.133a3.398 3.398 0 0 1-3.398-3.398V81.247a3.398 3.398 0 0 1 3.398-3.4h5.133a3.398 3.398 0 0 1 3.398 3.4v13.417a3.398 3.398 0 0 1-3.398 3.398" mask="url(#v)"/>
            </g>
            <g transform="translate(0 -.289)">
                <mask id="x" fill="#fff">
                    <use xlink:href="#w"/>
                </mask>
                <path fill="#CA583C" d="M68.738 105.183h20.48s-2.622 10.649-10.24 10.649-10.24-10.649-10.24-10.649" mask="url(#x)"/>
            </g>
        </g>
    </g>
</svg>
