<?xml version="1.0" encoding="UTF-8"?>
<svg width="3794px" height="1047px" viewBox="0 0 3794 1047" version="1.1" xmlns="http://www.w3.org/2000/svg" xmlns:xlink="http://www.w3.org/1999/xlink">
    <!-- Generator: Sketch 52.5 (67469) - http://www.bohemiancoding.com/sketch -->
    <title>Group</title>
    <desc>Created with Sketch.</desc>
    <g id="Page-1" stroke="none" stroke-width="1" fill="none" fill-rule="evenodd">
        <g id="Logo-with-Name-Color" transform="translate(-182.000000, -178.000000)">
            <g id="Group" transform="translate(161.000000, 35.000000)">
                <g id="Group-4" fill-rule="nonzero">
                    <g id="Box" transform="translate(0.000000, 123.000000)" fill="#007BFF">
                        <rect id="Rectangle" transform="translate(290.098329, 214.000000) rotate(-30.000000) translate(-290.098329, -214.000000) " x="1.59832899" y="133.5" width="577" height="161" rx="58"></rect>
                        <circle id="Oval" cx="480" cy="545" r="390"></circle>
                        <rect id="Rectangle" transform="translate(101.500000, 544.534955) rotate(90.000000) translate(-101.500000, -544.534955) " x="-187" y="464.034955" width="577" height="161" rx="58"></rect>
                        <rect id="Rectangle" transform="translate(668.098329, 214.000000) scale(-1, 1) rotate(-30.000000) translate(-668.098329, -214.000000) " x="379.598329" y="133.5" width="577" height="161" rx="58"></rect>
                        <rect id="Rectangle" transform="translate(290.098329, 874.000000) scale(1, -1) rotate(-30.000000) translate(-290.098329, -874.000000) " x="1.59832899" y="793.5" width="577" height="161" rx="58"></rect>
                        <rect id="Rectangle" transform="translate(668.098329, 874.000000) scale(-1, -1) rotate(-30.000000) translate(-668.098329, -874.000000) " x="379.598329" y="793.5" width="577" height="161" rx="58"></rect>
                        <rect id="Rectangle" transform="translate(856.500000, 544.534955) scale(-1, 1) rotate(90.000000) translate(-856.500000, -544.534955) " x="568" y="464.034955" width="577" height="161" rx="58"></rect>
                    </g>
                    <g id="Shade" transform="translate(14.000000, 0.000000)" fill="#5E9AE0">
                        <g id="Group-2" transform="translate(464.338365, 415.075570) scale(1, -1) rotate(60.000000) translate(-464.338365, -415.075570) translate(200.338365, 43.075570)">
                            <rect id="Rectangle" transform="translate(276.819472, 552.066987) scale(-1, -1) rotate(-30.000000) translate(-276.819472, -552.066987) " x="33.3194722" y="472.066987" width="487" height="160" rx="58"></rect>
                            <path d="M238.968442,205.580999 L613.10147,210.470548 C644.835673,210.885283 670.343532,236.728683 670.343532,268.465596 L670.343532,314.218646 C670.343532,346.251161 644.376048,372.218646 612.343532,372.218646 L239.682348,372.218646 C208.305982,372.218646 182.618346,347.266732 181.706828,315.903609 L180.234985,265.26101 C179.304405,233.242014 204.506546,206.531106 236.525541,205.600527 C237.339614,205.576867 238.154095,205.570356 238.968442,205.580999 Z" id="Rectangle" transform="translate(425.276777, 288.897346) scale(-1, 1) rotate(90.000000) translate(-425.276777, -288.897346) "></path>
                            <path d="M65.7301592,111.956646 L437.048153,112.608123 C469.040886,112.664254 494.946392,138.615251 494.946392,170.608033 L494.946392,213.719133 C494.946392,245.751649 468.978907,271.719133 436.946392,271.719133 L65.7652722,271.719133 C33.803576,271.719133 7.8655202,245.862076 7.76555588,213.900536 L7.62868213,170.137959 C7.52849632,138.1056 33.4146372,112.057026 65.446996,111.95684 C65.5413834,111.956545 65.6357714,111.95648 65.7301592,111.956646 Z" id="Rectangle" transform="translate(251.286267, 191.837843) scale(-1, -1) rotate(-30.000000) translate(-251.286267, -191.837843) "></path>
                            <rect id="Rectangle" transform="translate(103.873022, 453.657755) scale(-1, 1) rotate(90.000000) translate(-103.873022, -453.657755) " x="-139.626978" y="371.157755" width="487" height="165" rx="58"></rect>
                            <ellipse id="Oval" transform="translate(269.997077, 377.669780) rotate(30.000000) translate(-269.997077, -377.669780) " cx="269.997077" cy="377.66978" rx="115.5" ry="267"></ellipse>
                        </g>
                        <g id="Group-3" transform="translate(0.000000, 320.000000)">
                            <rect id="Rectangle" transform="translate(83.799981, 118.145826) rotate(30.000000) translate(-83.799981, -118.145826) " x="5.7999815" y="85.6458256" width="156" height="65" rx="32.5"></rect>
                            <rect id="Rectangle" transform="translate(88.716081, 62.182686) scale(1, -1) rotate(30.000000) translate(-88.716081, -62.182686) " x="10.7160809" y="36.1826859" width="156" height="52" rx="26"></rect>
                            <rect id="Rectangle" transform="translate(839.188766, 121.362813) scale(-1, 1) rotate(30.000000) translate(-839.188766, -121.362813) " x="752.688766" y="89.3628129" width="173" height="64" rx="32"></rect>
                            <rect id="Rectangle" transform="translate(847.183956, 65.016660) scale(-1, -1) rotate(30.000000) translate(-847.183956, -65.016660) " x="770.183956" y="38.0166605" width="154" height="54" rx="27"></rect>
                        </g>
                    </g>
                    <g id="Code" transform="translate(47.000000, 333.000000)" fill="#FFFFFF">
                        <g id="Right" transform="translate(717.500000, 335.500000) scale(-1, 1) translate(-717.500000, -335.500000) translate(569.000000, 105.000000)">
                            <path d="M62.4577558,187.815316 L67.496985,187.814095 C92.1387756,187.808122 112.119736,207.779398 112.125708,232.421189 C112.12571,232.428399 112.12571,232.435608 112.125708,232.442818 L112.125708,232.442818 C112.119732,257.100057 92.132584,277.087205 67.4753454,277.093181 L62.4361163,277.094403 C37.7943256,277.100375 17.8133656,257.129099 17.8073929,232.487308 C17.8073911,232.480098 17.8073911,232.472889 17.8073929,232.465679 L17.8073929,232.465679 C17.8133693,207.808441 37.8005172,187.821293 62.4577558,187.815316 Z" id="Rectangle" transform="translate(64.966551, 232.454249) rotate(45.000000) translate(-64.966551, -232.454249) "></path>
                            <path d="M131.113795,-9.69843855 L185.432109,-9.72211045 C196.477804,-9.72494969 205.43441,-0.772946649 205.43725,10.272748 C205.43725,10.2759853 205.43725,10.2792226 205.43725,10.28246 L205.358871,268.228661 C205.356348,279.270563 196.405915,288.221251 185.364013,288.224089 L131.045701,288.257475 C120.000006,288.260315 111.0434,279.308312 111.040561,268.262617 C111.04056,268.25938 111.04056,268.256142 111.040561,268.252905 L111.118939,10.3067041 C111.121463,-0.73519808 120.071895,-9.68588595 131.113797,-9.68872422 Z" id="Rectangle" transform="translate(158.238905, 139.267682) rotate(45.000000) translate(-158.238905, -139.267682) "></path>
                            <path d="M133.237942,178.364642 L187.556256,178.341261 C198.601951,178.338479 207.558511,187.290529 207.561293,198.336223 C207.561294,198.339457 207.561294,198.342692 207.561293,198.345926 L207.483122,450.292822 C207.480546,461.334728 198.530065,470.285375 187.48816,470.288156 L133.169848,470.321242 C122.124153,470.324024 113.167593,461.371975 113.164811,450.32628 C113.16481,450.323046 113.16481,450.319812 113.164811,450.316578 L113.242982,198.369682 C113.245558,187.327776 122.196038,178.377128 133.237944,178.374347 Z" id="Rectangle" transform="translate(160.363052, 324.331252) scale(1, -1) rotate(45.000000) translate(-160.363052, -324.331252) "></path>
                        </g>
                        <g id="Left" transform="translate(0.000000, 103.000000)">
                            <path d="M62.4577558,187.815316 L67.496985,187.814095 C92.1387756,187.808122 112.119736,207.779398 112.125708,232.421189 C112.12571,232.428399 112.12571,232.435608 112.125708,232.442818 L112.125708,232.442818 C112.119732,257.100057 92.132584,277.087205 67.4753454,277.093181 L62.4361163,277.094403 C37.7943256,277.100375 17.8133656,257.129099 17.8073929,232.487308 C17.8073911,232.480098 17.8073911,232.472889 17.8073929,232.465679 L17.8073929,232.465679 C17.8133693,207.808441 37.8005172,187.821293 62.4577558,187.815316 Z" id="Rectangle" transform="translate(64.966551, 232.454249) rotate(45.000000) translate(-64.966551, -232.454249) "></path>
                            <path d="M131.113795,-9.69843855 L185.432109,-9.72211045 C196.477804,-9.72494969 205.43441,-0.772946649 205.43725,10.272748 C205.43725,10.2759853 205.43725,10.2792226 205.43725,10.28246 L205.358871,268.228661 C205.356348,279.270563 196.405915,288.221251 185.364013,288.224089 L131.045701,288.257475 C120.000006,288.260315 111.0434,279.308312 111.040561,268.262617 C111.04056,268.25938 111.04056,268.256142 111.040561,268.252905 L111.118939,10.3067041 C111.121463,-0.73519808 120.071895,-9.68588595 131.113797,-9.68872422 Z" id="Rectangle" transform="translate(158.238905, 139.267682) rotate(45.000000) translate(-158.238905, -139.267682) "></path>
                            <path d="M133.237942,178.364642 L187.556256,178.341261 C198.601951,178.338479 207.558511,187.290529 207.561293,198.336223 C207.561294,198.339457 207.561294,198.342692 207.561293,198.345926 L207.483122,450.292822 C207.480546,461.334728 198.530065,470.285375 187.48816,470.288156 L133.169848,470.321242 C122.124153,470.324024 113.167593,461.371975 113.164811,450.32628 C113.16481,450.323046 113.16481,450.319812 113.164811,450.316578 L113.242982,198.369682 C113.245558,187.327776 122.196038,178.377128 133.237944,178.374347 Z" id="Rectangle" transform="translate(160.363052, 324.331252) scale(1, -1) rotate(45.000000) translate(-160.363052, -324.331252) "></path>
                        </g>
                        <path d="M407.025731,2.0033899 L461.328678,1.99922448 C472.374373,1.99872055 481.329086,10.952617 481.32959,21.998312 C481.32959,21.9988747 481.32959,21.9994374 481.32959,22.0000001 L481.302035,645.514834 C481.301606,656.55987 472.347983,665.513554 461.302947,665.514058 L407,665.519912 C395.954305,665.520416 386.999592,656.566519 386.999088,645.520824 C386.999088,645.520262 386.999088,645.519699 386.999088,645.519136 L387.026643,22.0043024 C387.027072,10.9592666 395.980695,2.00558192 407.025731,2.00507802 Z" id="Rectangle" transform="translate(434.164339, 333.759568) rotate(14.000000) translate(-434.164339, -333.759568) "></path>
                    </g>
                </g>
                <path d="M1149.684,443.704 L1294.116,443.704 L1393.872,726.448 L1395.096,726.448 L1495.464,443.704 L1639.284,443.704 L1639.284,877 L1543.812,877 L1543.812,544.684 L1542.588,544.684 L1428.756,877 L1355.928,877 L1246.38,544.684 L1245.156,544.684 L1245.156,877 L1149.684,877 L1149.684,443.704 Z M1731.084,443.704 L2025.456,443.704 L2025.456,531.832 L1826.556,531.832 L1826.556,612.616 L2014.44,612.616 L2014.44,700.744 L1826.556,700.744 L1826.556,788.872 L2036.472,788.872 L2036.472,877 L1731.084,877 L1731.084,443.704 Z M2396.328,556.312 C2386.94395,544.887943 2375.41807,536.116031 2361.75,529.996 C2348.08193,523.875969 2332.27209,520.816 2314.32,520.816 C2296.36791,520.816 2279.74208,524.283965 2264.442,531.22 C2249.14192,538.156035 2235.88206,547.845938 2224.662,560.29 C2213.44194,572.734062 2204.67003,587.523914 2198.346,604.66 C2192.02197,621.796086 2188.86,640.3599 2188.86,660.352 C2188.86,680.752102 2192.02197,699.417915 2198.346,716.35 C2204.67003,733.282085 2213.33994,747.969938 2224.356,760.414 C2235.37206,772.858062 2248.32593,782.547965 2263.218,789.484 C2278.11007,796.420035 2294.12391,799.888 2311.26,799.888 C2330.8441,799.888 2348.18392,795.808041 2363.28,787.648 C2378.37608,779.487959 2390.81995,768.064073 2400.612,753.376 L2480.172,812.74 C2461.81191,838.444129 2438.55614,857.415939 2410.404,869.656 C2382.25186,881.896061 2353.28415,888.016 2323.5,888.016 C2289.63583,888.016 2258.42414,882.712053 2229.864,872.104 C2201.30386,861.495947 2176.6201,846.298099 2155.812,826.51 C2135.0039,806.721901 2118.78606,782.752141 2107.158,754.6 C2095.52994,726.447859 2089.716,695.032173 2089.716,660.352 C2089.716,625.671827 2095.52994,594.256141 2107.158,566.104 C2118.78606,537.951859 2135.0039,513.982099 2155.812,494.194 C2176.6201,474.405901 2201.30386,459.208053 2229.864,448.6 C2258.42414,437.991947 2289.63583,432.688 2323.5,432.688 C2335.74006,432.688 2348.48993,433.809989 2361.75,436.054 C2375.01007,438.298011 2388.06594,441.867976 2400.918,446.764 C2413.77006,451.660024 2426.11194,458.187959 2437.944,466.348 C2449.77606,474.508041 2460.38395,484.503941 2469.768,496.336 L2396.328,556.312 Z M2508.936,660.352 C2508.936,625.671827 2514.74994,594.256141 2526.378,566.104 C2538.00606,537.951859 2554.2239,513.982099 2575.032,494.194 C2595.8401,474.405901 2620.52386,459.208053 2649.084,448.6 C2677.64414,437.991947 2708.85583,432.688 2742.72,432.688 C2776.58417,432.688 2807.79586,437.991947 2836.356,448.6 C2864.91614,459.208053 2889.5999,474.405901 2910.408,494.194 C2931.2161,513.982099 2947.43394,537.951859 2959.062,566.104 C2970.69006,594.256141 2976.504,625.671827 2976.504,660.352 C2976.504,695.032173 2970.69006,726.447859 2959.062,754.6 C2947.43394,782.752141 2931.2161,806.721901 2910.408,826.51 C2889.5999,846.298099 2864.91614,861.495947 2836.356,872.104 C2807.79586,882.712053 2776.58417,888.016 2742.72,888.016 C2708.85583,888.016 2677.64414,882.712053 2649.084,872.104 C2620.52386,861.495947 2595.8401,846.298099 2575.032,826.51 C2554.2239,806.721901 2538.00606,782.752141 2526.378,754.6 C2514.74994,726.447859 2508.936,695.032173 2508.936,660.352 Z M2608.08,660.352 C2608.08,680.752102 2611.24197,699.417915 2617.566,716.35 C2623.89003,733.282085 2632.96794,747.969938 2644.8,760.414 C2656.63206,772.858062 2670.80992,782.547965 2687.334,789.484 C2703.85808,796.420035 2722.3199,799.888 2742.72,799.888 C2763.1201,799.888 2781.58192,796.420035 2798.106,789.484 C2814.63008,782.547965 2828.80794,772.858062 2840.64,760.414 C2852.47206,747.969938 2861.54997,733.282085 2867.874,716.35 C2874.19803,699.417915 2877.36,680.752102 2877.36,660.352 C2877.36,640.3599 2874.19803,621.796086 2867.874,604.66 C2861.54997,587.523914 2852.47206,572.734062 2840.64,560.29 C2828.80794,547.845938 2814.63008,538.156035 2798.106,531.22 C2781.58192,524.283965 2763.1201,520.816 2742.72,520.816 C2722.3199,520.816 2703.85808,524.283965 2687.334,531.22 C2670.80992,538.156035 2656.63206,547.845938 2644.8,560.29 C2632.96794,572.734062 2623.89003,587.523914 2617.566,604.66 C2611.24197,621.796086 2608.08,640.3599 2608.08,660.352 Z M3041.376,443.704 L3184.584,443.704 C3219.26417,443.704 3252.20984,447.579961 3283.422,455.332 C3314.63416,463.084039 3341.86788,475.629913 3365.124,492.97 C3388.38012,510.310087 3406.84193,532.851861 3420.51,560.596 C3434.17807,588.340139 3441.012,621.999802 3441.012,661.576 C3441.012,696.664175 3434.38207,727.569866 3421.122,754.294 C3407.86193,781.018134 3390.01211,803.457909 3367.572,821.614 C3345.13189,839.770091 3319.22415,853.539953 3289.848,862.924 C3260.47185,872.308047 3229.66816,877 3197.436,877 L3041.376,877 L3041.376,443.704 Z M3136.848,788.872 L3186.42,788.872 C3208.45211,788.872 3228.95391,786.628022 3247.926,782.14 C3266.89809,777.651978 3283.31993,770.206052 3297.192,759.802 C3311.06407,749.397948 3321.97796,735.730085 3329.934,718.798 C3337.89004,701.865915 3341.868,681.160122 3341.868,656.68 C3341.868,635.463894 3337.89004,617.002079 3329.934,601.294 C3321.97796,585.585921 3311.26807,572.632051 3297.804,562.432 C3284.33993,552.231949 3268.53009,544.582026 3250.374,539.482 C3232.21791,534.381975 3213.1441,531.832 3193.152,531.832 L3136.848,531.832 L3136.848,788.872 Z M3509.556,443.704 L3803.928,443.704 L3803.928,531.832 L3605.028,531.832 L3605.028,612.616 L3792.912,612.616 L3792.912,700.744 L3605.028,700.744 L3605.028,788.872 L3814.944,788.872 L3814.944,877 L3509.556,877 L3509.556,443.704 Z" id="MECODE" fill="#4B4B51"></path>
            </g>
        </g>
    </g>
</svg>