<svg xmlns="http://www.w3.org/2000/svg" xmlns:xlink="http://www.w3.org/1999/xlink" width="158" height="158" viewBox="0 0 158 158">
    <defs>
        <path id="a" d="M.428.362h157.479V157.84H.428z"/>
        <path id="c" d="M.428 79.101c0 43.487 35.253 78.739 78.74 78.739 43.486 0 78.739-35.252 78.739-78.739 0-43.486-35.253-78.74-78.739-78.74C35.681.361.428 35.615.428 79.101"/>
        <path id="e" d="M.428 79.101c0 43.487 35.253 78.739 78.74 78.739 43.486 0 78.739-35.252 78.739-78.739 0-43.486-35.253-78.74-78.739-78.74C35.681.361.428 35.615.428 79.101"/>
        <path id="g" d="M.428 79.101c0 43.487 35.253 78.739 78.74 78.739 43.486 0 78.739-35.252 78.739-78.739 0-43.486-35.253-78.74-78.739-78.74C35.681.361.428 35.615.428 79.101"/>
        <path id="i" d="M.428 79.101c0 43.487 35.253 78.739 78.74 78.739 43.486 0 78.739-35.252 78.739-78.739 0-43.486-35.253-78.74-78.739-78.74C35.681.361.428 35.615.428 79.101z"/>
        <path id="k" d="M.428 79.101c0 43.487 35.253 78.739 78.74 78.739 43.486 0 78.739-35.252 78.739-78.739 0-43.486-35.253-78.74-78.739-78.74C35.681.361.428 35.615.428 79.101"/>
        <path id="m" d="M.428 79.101c0 43.487 35.253 78.739 78.74 78.739 43.486 0 78.739-35.252 78.739-78.739 0-43.486-35.253-78.74-78.739-78.74C35.681.361.428 35.615.428 79.101"/>
        <path id="o" d="M.428 79.101c0 43.487 35.253 78.739 78.74 78.739 43.486 0 78.739-35.252 78.739-78.739 0-43.486-35.253-78.74-78.739-78.74C35.681.361.428 35.615.428 79.101"/>
        <path id="q" d="M.428 79.101c0 43.487 35.253 78.739 78.74 78.739 43.486 0 78.739-35.252 78.739-78.739 0-43.486-35.253-78.74-78.739-78.74C35.681.361.428 35.615.428 79.101"/>
        <path id="s" d="M.428 79.101c0 43.487 35.253 78.739 78.74 78.739 43.486 0 78.739-35.252 78.739-78.739 0-43.486-35.253-78.74-78.739-78.74C35.681.361.428 35.615.428 79.101"/>
        <path id="u" d="M.428 79.101c0 43.487 35.253 78.739 78.74 78.739 43.486 0 78.739-35.252 78.739-78.739 0-43.486-35.253-78.74-78.739-78.74C35.681.361.428 35.615.428 79.101"/>
        <path id="w" d="M.428 79.101c0 43.487 35.253 78.739 78.74 78.739 43.486 0 78.739-35.252 78.739-78.739 0-43.486-35.253-78.74-78.739-78.74C35.681.361.428 35.615.428 79.101"/>
        <path id="y" d="M.428 79.101c0 43.487 35.253 78.739 78.74 78.739 43.486 0 78.739-35.252 78.739-78.739 0-43.486-35.253-78.74-78.739-78.74C35.681.361.428 35.615.428 79.101z"/>
        <path id="A" d="M.428 79.101c0 43.487 35.253 78.739 78.74 78.739 43.486 0 78.739-35.252 78.739-78.739 0-43.486-35.253-78.74-78.739-78.74C35.681.361.428 35.615.428 79.101"/>
        <path id="C" d="M.428 79.101c0 43.487 35.253 78.739 78.74 78.739 43.486 0 78.739-35.252 78.739-78.739 0-43.486-35.253-78.74-78.739-78.74C35.681.361.428 35.615.428 79.101"/>
        <path id="E" d="M.428 79.101c0 43.487 35.253 78.739 78.74 78.739 43.486 0 78.739-35.252 78.739-78.739 0-43.486-35.253-78.74-78.739-78.74C35.681.361.428 35.615.428 79.101"/>
    </defs>
    <g fill="none" fill-rule="evenodd">
        <g transform="translate(0 .135)">
            <mask id="b" fill="#fff">
                <use xlink:href="#a"/>
            </mask>
            <path fill="#F8F8F9" d="M157.907 79.101c0 43.486-35.253 78.74-78.739 78.74-43.487 0-78.74-35.254-78.74-78.74S35.681.362 79.168.362c43.486 0 78.74 35.253 78.74 78.74" mask="url(#b)"/>
        </g>
        <g transform="translate(0 .135)">
            <mask id="d" fill="#fff">
                <use xlink:href="#c"/>
            </mask>
            <path fill="#F7AC82" d="M74.336 109.376h11.352a6.545 6.545 0 0 1 6.545 6.546v22.013a6.545 6.545 0 0 1-6.545 6.546H74.336a6.545 6.545 0 0 1-6.546-6.546v-22.013a6.546 6.546 0 0 1 6.546-6.546" mask="url(#d)"/>
        </g>
        <g transform="translate(0 .135)">
            <mask id="f" fill="#fff">
                <use xlink:href="#e"/>
            </mask>
            <path fill="#7B53A2" d="M103.621 168H56.402c-7.423 0-13.441-6.018-13.441-13.44v-20.157c0-7.423 6.018-13.441 13.441-13.441h47.219c7.424 0 13.441 6.017 13.441 13.44v20.158c0 7.422-6.017 13.44-13.441 13.44" mask="url(#f)"/>
        </g>
        <g transform="translate(0 .135)">
            <mask id="h" fill="#fff">
                <use xlink:href="#g"/>
            </mask>
            <path fill="#F7AC82" d="M74.454 109.376h11.353a6.545 6.545 0 0 1 6.544 6.546v22.013a6.544 6.544 0 0 1-6.544 6.546H74.454a6.545 6.545 0 0 1-6.546-6.546v-22.013a6.546 6.546 0 0 1 6.546-6.546" mask="url(#h)"/>
        </g>
        <g transform="translate(0 .135)">
            <mask id="j" fill="#fff">
                <use xlink:href="#i"/>
            </mask>
            <path fill="#EFBB37" d="M54.254 31.84s-20.741 4.711-29.882 52.171h5.625s.284 41.131 3.482 43.592c0 0-16.138 11.25-14.38 16.172 1.758 4.921 12.589 9.842 14.38 8.086 1.79-1.758 3.13-22.5 3.13-22.5s-2.042-3.165 13.778-9.492c15.819-6.328 58.709 1.055 58.709 1.055l12.656 6.68s-1.758 24.281 1.758 24.62c3.515.34 13.358-6.692 12.655-10.91-.703-4.219-10.898-14.414-10.898-14.414s2.812-42.889.35-47.81c0 0 7.033 2.812 8.79 1.757 0 0 .703-75.584-81.56-52.029l1.407 3.022z" mask="url(#j)"/>
        </g>
        <g transform="translate(0 .135)">
            <mask id="l" fill="#fff">
                <use xlink:href="#k"/>
            </mask>
            <path fill="#F7AC82" d="M48.682 95.155c0 5.429-4.4 9.829-9.83 9.829a9.828 9.828 0 0 1-9.828-9.83c0-5.428 4.4-9.828 9.829-9.828s9.829 4.4 9.829 9.829" mask="url(#l)"/>
        </g>
        <g transform="translate(0 .135)">
            <mask id="n" fill="#fff">
                <use xlink:href="#m"/>
            </mask>
            <path fill="#F7AC82" d="M130.316 95.155c0 5.429-4.4 9.829-9.829 9.829s-9.83-4.4-9.83-9.83c0-5.428 4.401-9.828 9.83-9.828 5.428 0 9.83 4.4 9.83 9.829" mask="url(#n)"/>
        </g>
        <g transform="translate(0 .135)">
            <mask id="p" fill="#fff">
                <use xlink:href="#o"/>
            </mask>
            <path fill="#FBCBA9" d="M124.857 83.886c0 24.768-20.078 44.846-44.846 44.846-24.767 0-44.845-20.078-44.845-44.846 0-24.768 20.078-44.846 44.845-44.846 24.768 0 44.846 20.078 44.846 44.846" mask="url(#p)"/>
        </g>
        <g transform="translate(0 .135)">
            <mask id="r" fill="#fff">
                <use xlink:href="#q"/>
            </mask>
            <path fill="#010202" d="M63.477 87.53a6.443 6.443 0 1 1-12.885 0 6.443 6.443 0 0 1 12.886 0" mask="url(#r)"/>
        </g>
        <g transform="translate(0 .135)">
            <mask id="t" fill="#fff">
                <use xlink:href="#s"/>
            </mask>
            <path fill="#010202" d="M109.432 87.53a6.443 6.443 0 1 1-12.885-.001 6.443 6.443 0 0 1 12.885.002" mask="url(#t)"/>
        </g>
        <g transform="translate(0 .135)">
            <mask id="v" fill="#fff">
                <use xlink:href="#u"/>
            </mask>
            <path fill="#F7AC82" d="M79.996 97.277a5.946 5.946 0 0 1-5.946-5.946h11.893a5.946 5.946 0 0 1-5.947 5.946" mask="url(#v)"/>
        </g>
        <g transform="translate(0 .135)">
            <mask id="x" fill="#fff">
                <use xlink:href="#w"/>
            </mask>
            <path fill="#CA583C" d="M69.788 104.376h20.417s-2.613 10.617-10.209 10.617c-7.595 0-10.208-10.617-10.208-10.617" mask="url(#x)"/>
        </g>
        <g transform="translate(0 .135)">
            <mask id="z" fill="#fff">
                <use xlink:href="#y"/>
            </mask>
            <path fill="#EFBB37" d="M34.999 85.181s14.74 4.78 29.48-40.636V29.59l-14.74 10.973-20.716 38.245 5.976 6.374z" mask="url(#z)"/>
        </g>
        <g transform="translate(0 .135)">
            <mask id="B" fill="#fff">
                <use xlink:href="#A"/>
            </mask>
            <path fill="#EFBB37" d="M53.336 29.36s9.362 46.996 83.996 52.718c0 0-5.461-78.388-83.996-52.717" mask="url(#B)"/>
        </g>
        <g transform="translate(0 .135)">
            <mask id="D" fill="#fff">
                <use xlink:href="#C"/>
            </mask>
            <path fill="#7B53A2" d="M36.365 129.185l-3.22-1.027a.732.732 0 0 1-.474-.92l.333-1.044a.731.731 0 0 1 .92-.475l3.22 1.028a.731.731 0 0 1 .473.92l-.333 1.044a.73.73 0 0 1-.919.474" mask="url(#D)"/>
        </g>
        <g transform="translate(0 .135)">
            <mask id="F" fill="#fff">
                <use xlink:href="#E"/>
            </mask>
            <path fill="#7B53A2" d="M122.321 129.238l3.221-1.028a.731.731 0 0 0 .473-.92l-.333-1.044a.731.731 0 0 0-.919-.475l-3.22 1.029a.73.73 0 0 0-.474.918l.333 1.045a.732.732 0 0 0 .92.475" mask="url(#F)"/>
        </g>
        <g fill="#EFBB37">
            <path d="M33.059 128.565s-22.426 12.48-11.101 19.69c11.327 7.21 12.076 5.372 12.892-1.362.817-6.734 2.388-16.89 1.076-17.022-1.31-.133-2.867-1.306-2.867-1.306M125.604 128.356s21.187 14.486 9.248 20.627c-11.94 6.14-13.272 4.463-13.469-2.318-.195-6.78-.072-17.259 1.246-17.27 1.32-.013 2.975-1.039 2.975-1.039"/>
        </g>
    </g>
</svg>
