<svg xmlns="http://www.w3.org/2000/svg" xmlns:xlink="http://www.w3.org/1999/xlink" width="158" height="159" viewBox="0 0 158 159">
    <defs>
        <path id="a" d="M0 .797h157.957v157.957H0z"/>
        <path id="c" d="M79.594.913C35.768.913.239 36.441.239 80.266c0 43.828 35.529 79.356 79.355 79.356 43.827 0 79.355-35.528 79.355-79.356"/>
        <path id="e" d="M79.594.913C35.768.913.239 36.441.239 80.266c0 43.828 35.529 79.356 79.355 79.356 43.827 0 79.355-35.528 79.355-79.356 0-43.825-35.528-79.353-79.355-79.353z"/>
        <path id="g" d="M79.594.913C35.768.913.239 36.441.239 80.266c0 43.828 35.529 79.356 79.355 79.356 43.827 0 79.355-35.528 79.355-79.356 0-43.825-35.528-79.353-79.355-79.353z"/>
        <path id="i" d="M79.594.913C35.768.913.239 36.441.239 80.266c0 43.828 35.529 79.356 79.355 79.356 43.827 0 79.355-35.528 79.355-79.356"/>
        <path id="k" d="M79.594.913C35.768.913.239 36.441.239 80.266c0 43.828 35.529 79.356 79.355 79.356 43.827 0 79.355-35.528 79.355-79.356"/>
        <path id="m" d="M79.594.913C35.768.913.239 36.441.239 80.266c0 43.828 35.529 79.356 79.355 79.356 43.827 0 79.355-35.528 79.355-79.356"/>
        <path id="o" d="M79.594.913C35.768.913.239 36.441.239 80.266c0 43.828 35.529 79.356 79.355 79.356 43.827 0 79.355-35.528 79.355-79.356"/>
        <path id="q" d="M79.594.913C35.768.913.239 36.441.239 80.266c0 43.828 35.529 79.356 79.355 79.356 43.827 0 79.355-35.528 79.355-79.356"/>
        <path id="s" d="M79.594.913C35.768.913.239 36.441.239 80.266c0 43.828 35.529 79.356 79.355 79.356 43.827 0 79.355-35.528 79.355-79.356"/>
        <path id="u" d="M79.594.913C35.768.913.239 36.441.239 80.266c0 43.828 35.529 79.356 79.355 79.356 43.827 0 79.355-35.528 79.355-79.356"/>
        <path id="w" d="M79.594.913C35.768.913.239 36.441.239 80.266c0 43.828 35.529 79.356 79.355 79.356 43.827 0 79.355-35.528 79.355-79.356"/>
        <path id="y" d="M79.594.913C35.768.913.239 36.441.239 80.266c0 43.828 35.529 79.356 79.355 79.356 43.827 0 79.355-35.528 79.355-79.356"/>
        <path id="A" d="M79.594.913C35.768.913.239 36.441.239 80.266c0 43.828 35.529 79.356 79.355 79.356 43.827 0 79.355-35.528 79.355-79.356 0-43.825-35.528-79.353-79.355-79.353z"/>
        <path id="C" d="M79.594.913C35.768.913.239 36.441.239 80.266c0 43.828 35.529 79.356 79.355 79.356 43.827 0 79.355-35.528 79.355-79.356"/>
        <path id="E" d="M79.594.913C35.768.913.239 36.441.239 80.266c0 43.828 35.529 79.356 79.355 79.356 43.827 0 79.355-35.528 79.355-79.356"/>
    </defs>
    <g fill="none" fill-rule="evenodd">
        <g transform="translate(0 .088)">
            <mask id="b" fill="#fff">
                <use xlink:href="#a"/>
            </mask>
            <path fill="#F8F8F9" d="M157.957 79.775c0 43.62-35.36 78.98-78.98 78.98C35.36 158.755 0 123.395 0 79.775 0 36.157 35.36.797 78.978.797s78.979 35.36 78.979 78.978" mask="url(#b)"/>
        </g>
        <g transform="translate(0 -.912)">
            <mask id="d" fill="#fff">
                <use xlink:href="#c"/>
            </mask>
            <path fill="#F7AC82" d="M73.947 111.198h11.426a6.546 6.546 0 0 1 6.546 6.546v22.12a6.546 6.546 0 0 1-6.546 6.545H73.947a6.546 6.546 0 0 1-6.546-6.546v-22.119a6.546 6.546 0 0 1 6.546-6.546" mask="url(#d)"/>
        </g>
        <g transform="translate(0 -.912)">
            <mask id="f" fill="#fff">
                <use xlink:href="#e"/>
            </mask>
            <path fill="#162846" d="M32.063 72.87s-2.025 82.493-3.383 82.945c-1.358.453 30.782-4.979 40.74-2.716 9.96 2.264 25.284-10.412 25.284-10.412L106.66 103.1l-2.207-23.609-27.368-29.133L32.063 72.87z" mask="url(#f)"/>
        </g>
        <g transform="translate(0 -.912)">
            <mask id="h" fill="#fff">
                <use xlink:href="#g"/>
            </mask>
            <path fill="#162846" d="M127.505 74.025s2.025 82.493 3.383 82.945c1.358.453-30.782-4.98-40.741-2.715-9.96 2.263-25.284-10.412-25.284-10.412l-11.956-39.588 2.207-23.61 27.368-29.132 45.023 22.512z" mask="url(#h)"/>
        </g>
        <g transform="translate(0 -.912)">
            <mask id="j" fill="#fff">
                <use xlink:href="#i"/>
            </mask>
            <path fill="#F05E2F" d="M103.381 170H55.938c-7.424 0-13.442-6.018-13.442-13.44v-20.3c0-7.423 6.018-13.442 13.442-13.442h47.443c7.423 0 13.441 6.02 13.441 13.442v20.3c0 7.422-6.018 13.44-13.44 13.44" mask="url(#j)"/>
        </g>
        <g transform="translate(0 -.912)">
            <mask id="l" fill="#fff">
                <use xlink:href="#k"/>
            </mask>
            <path fill="#F7AC82" d="M74.065 111.198h11.426a6.546 6.546 0 0 1 6.546 6.546v22.12a6.546 6.546 0 0 1-6.546 6.545H74.065a6.546 6.546 0 0 1-6.546-6.546v-22.119a6.546 6.546 0 0 1 6.546-6.546" mask="url(#l)"/>
        </g>
        <g transform="translate(0 -.912)">
            <mask id="n" fill="#fff">
                <use xlink:href="#m"/>
            </mask>
            <path fill="#F7AC82" d="M48.234 96.934c0 5.445-4.414 9.859-9.859 9.859s-9.859-4.414-9.859-9.86c0-5.444 4.414-9.858 9.86-9.858 5.444 0 9.858 4.414 9.858 9.859" mask="url(#n)"/>
        </g>
        <g transform="translate(0 -.912)">
            <mask id="p" fill="#fff">
                <use xlink:href="#o"/>
            </mask>
            <path fill="#F7AC82" d="M130.117 96.934c0 5.445-4.414 9.859-9.86 9.859-5.444 0-9.858-4.414-9.858-9.86 0-5.444 4.414-9.858 9.859-9.858s9.859 4.414 9.859 9.859" mask="url(#p)"/>
        </g>
        <g transform="translate(0 -.912)">
            <mask id="r" fill="#fff">
                <use xlink:href="#q"/>
            </mask>
            <path fill="#FBCBA9" d="M124.642 85.631c0 24.843-20.14 44.981-44.982 44.981-24.843 0-44.982-20.138-44.982-44.981S54.817 40.649 79.66 40.649s44.982 20.139 44.982 44.982" mask="url(#r)"/>
        </g>
        <g transform="translate(0 -.912)">
            <mask id="t" fill="#fff">
                <use xlink:href="#s"/>
            </mask>
            <path fill="#010202" d="M63.075 89.286a6.462 6.462 0 1 1-12.924 0 6.462 6.462 0 0 1 12.924 0" mask="url(#t)"/>
        </g>
        <g transform="translate(0 -.912)">
            <mask id="v" fill="#fff">
                <use xlink:href="#u"/>
            </mask>
            <path fill="#010202" d="M109.169 89.286a6.462 6.462 0 1 1-12.925 0 6.462 6.462 0 0 1 12.925 0" mask="url(#v)"/>
        </g>
        <g transform="translate(0 -.912)">
            <mask id="x" fill="#fff">
                <use xlink:href="#w"/>
            </mask>
            <path fill="#F7AC82" d="M79.644 99.063a5.965 5.965 0 0 1-5.965-5.965h11.93a5.965 5.965 0 0 1-5.965 5.965" mask="url(#x)"/>
        </g>
        <g transform="translate(0 -.912)">
            <mask id="z" fill="#fff">
                <use xlink:href="#y"/>
            </mask>
            <path fill="#CA583C" d="M69.404 106.183h20.48s-2.622 10.649-10.24 10.649-10.24-10.65-10.24-10.65" mask="url(#z)"/>
        </g>
        <g transform="translate(0 -.912)">
            <mask id="B" fill="#fff">
                <use xlink:href="#A"/>
            </mask>
            <path fill="#E12A37" d="M31.694 74.877s-1.76-43.983 46.916-43.983c48.674 0 49.26 43.983 49.26 43.983H31.695z" mask="url(#B)"/>
        </g>
        <g transform="translate(0 -.912)">
            <mask id="D" fill="#fff">
                <use xlink:href="#C"/>
            </mask>
            <path fill="#C42026" d="M85.35 30.014a5.571 5.571 0 1 1-11.143 0 5.571 5.571 0 0 1 11.143 0" mask="url(#D)"/>
        </g>
        <g transform="translate(0 -.912)">
            <mask id="F" fill="#fff">
                <use xlink:href="#E"/>
            </mask>
            <path fill="#C42026" d="M127.867 74.877s-44.394 10.61-96.177 0c0 0 45.81-19.824 96.177 0" mask="url(#F)"/>
        </g>
    </g>
</svg>
