<svg xmlns="http://www.w3.org/2000/svg" xmlns:xlink="http://www.w3.org/1999/xlink" width="159" height="159" viewBox="0 0 159 159">
    <defs>
        <path id="a" d="M.388 80.185c0 43.827 35.529 79.355 79.356 79.355 43.826 0 79.354-35.528 79.354-79.355C159.098 36.358 123.57.83 79.744.83 35.917.83.388 36.358.388 80.185"/>
        <path id="c" d="M.388 80.185c0 43.827 35.529 79.355 79.356 79.355 43.826 0 79.354-35.528 79.354-79.355C159.098 36.358 123.57.83 79.744.83 35.917.83.388 36.358.388 80.185"/>
        <path id="e" d="M.388 80.185c0 43.827 35.529 79.355 79.356 79.355 43.826 0 79.354-35.528 79.354-79.355C159.098 36.358 123.57.83 79.744.83 35.917.83.388 36.358.388 80.185"/>
        <path id="g" d="M.388 80.185c0 43.827 35.529 79.355 79.356 79.355 43.826 0 79.354-35.528 79.354-79.355C159.098 36.358 123.57.83 79.744.83 35.917.83.388 36.358.388 80.185"/>
        <path id="i" d="M.388 80.185c0 43.827 35.529 79.355 79.356 79.355 43.826 0 79.354-35.528 79.354-79.355C159.098 36.358 123.57.83 79.744.83 35.917.83.388 36.358.388 80.185"/>
        <path id="k" d="M.388 80.185c0 43.827 35.529 79.355 79.356 79.355 43.826 0 79.354-35.528 79.354-79.355C159.098 36.358 123.57.83 79.744.83 35.917.83.388 36.358.388 80.185"/>
        <path id="m" d="M.388 80.185c0 43.827 35.529 79.355 79.356 79.355 43.826 0 79.354-35.528 79.354-79.355C159.098 36.358 123.57.83 79.744.83 35.917.83.388 36.358.388 80.185"/>
        <path id="o" d="M.388 80.185c0 43.827 35.529 79.355 79.356 79.355 43.826 0 79.354-35.528 79.354-79.355C159.098 36.358 123.57.83 79.744.83 35.917.83.388 36.358.388 80.185"/>
        <path id="q" d="M.388 80.185c0 43.827 35.529 79.355 79.356 79.355 43.826 0 79.354-35.528 79.354-79.355C159.098 36.358 123.57.83 79.744.83 35.917.83.388 36.358.388 80.185"/>
        <path id="s" d="M.388 80.185c0 43.827 35.529 79.355 79.356 79.355 43.826 0 79.354-35.528 79.354-79.355C159.098 36.358 123.57.83 79.744.83 35.917.83.388 36.358.388 80.185"/>
        <path id="u" d="M.388 80.185c0 43.827 35.529 79.355 79.356 79.355 43.826 0 79.354-35.528 79.354-79.355C159.098 36.358 123.57.83 79.744.83 35.917.83.388 36.358.388 80.185"/>
        <path id="w" d="M.388 80.185c0 43.827 35.529 79.355 79.356 79.355 43.826 0 79.354-35.528 79.354-79.355C159.098 36.358 123.57.83 79.744.83 35.917.83.388 36.358.388 80.185"/>
    </defs>
    <g fill="none" fill-rule="evenodd">
        <path fill="#F8F8F9" d="M158.706 79.49c0 43.619-35.36 78.979-78.978 78.979-43.619 0-78.979-35.36-78.979-78.98C.75 35.873 36.11.513 79.73.513c43.617 0 78.977 35.36 78.977 78.978"/>
        <g transform="translate(0 -.94)">
            <mask id="b" fill="#fff">
                <use xlink:href="#a"/>
            </mask>
            <path fill="#FBC32F" d="M103.465 167.654H56.021c-7.423 0-13.44-6.018-13.44-13.44v-20.3c0-7.423 6.017-13.442 13.44-13.442h47.444c7.423 0 13.441 6.02 13.441 13.442v20.3c0 7.422-6.018 13.44-13.44 13.44" mask="url(#b)"/>
        </g>
        <g transform="translate(0 -.94)">
            <mask id="d" fill="#fff">
                <use xlink:href="#c"/>
            </mask>
            <path fill="#8C6144" d="M74.03 108.853h11.426a6.546 6.546 0 0 1 6.546 6.546v22.119a6.546 6.546 0 0 1-6.546 6.546H74.03a6.546 6.546 0 0 1-6.546-6.546v-22.12a6.546 6.546 0 0 1 6.546-6.545" mask="url(#d)"/>
        </g>
        <g transform="translate(0 -.94)">
            <mask id="f" fill="#fff">
                <use xlink:href="#e"/>
            </mask>
            <path fill="#8C6144" d="M49.016 88.29c0 5.444-4.414 9.858-9.859 9.858s-9.859-4.414-9.859-9.859 4.414-9.859 9.86-9.859c5.444 0 9.858 4.414 9.858 9.86" mask="url(#f)"/>
        </g>
        <g transform="translate(0 -.94)">
            <mask id="h" fill="#fff">
                <use xlink:href="#g"/>
            </mask>
            <path fill="#8C6144" d="M129.75 90.044c0 5.445-4.415 9.859-9.86 9.859-5.445 0-9.859-4.414-9.859-9.86 0-5.444 4.414-9.858 9.86-9.858 5.444 0 9.859 4.414 9.859 9.859" mask="url(#h)"/>
        </g>
        <g transform="translate(0 -.94)">
            <mask id="j" fill="#fff">
                <use xlink:href="#i"/>
            </mask>
            <path fill="#B07D55" d="M124.725 83.285c0 24.843-20.139 44.981-44.982 44.981s-44.982-20.138-44.982-44.98c0-24.844 20.14-44.983 44.982-44.983 24.843 0 44.982 20.14 44.982 44.982" mask="url(#j)"/>
        </g>
        <g transform="translate(0 -.94)">
            <mask id="l" fill="#fff">
                <use xlink:href="#k"/>
            </mask>
            <path fill="#010202" d="M63.158 86.94a6.462 6.462 0 1 1-12.923 0 6.462 6.462 0 0 1 12.923 0" mask="url(#l)"/>
        </g>
        <g transform="translate(0 -.94)">
            <mask id="n" fill="#fff">
                <use xlink:href="#m"/>
            </mask>
            <path fill="#010202" d="M109.252 86.94a6.462 6.462 0 1 1-12.923 0 6.462 6.462 0 0 1 12.924 0" mask="url(#n)"/>
        </g>
        <g transform="translate(0 -.94)">
            <mask id="p" fill="#fff">
                <use xlink:href="#o"/>
            </mask>
            <path fill="#8C6144" d="M82.294 96.717h-5.132a3.399 3.399 0 0 1-3.399-3.4V79.902a3.4 3.4 0 0 1 3.399-3.4h5.132a3.4 3.4 0 0 1 3.399 3.4v13.417a3.399 3.399 0 0 1-3.399 3.399" mask="url(#p)"/>
        </g>
        <g transform="translate(0 -.94)">
            <mask id="r" fill="#fff">
                <use xlink:href="#q"/>
            </mask>
            <path fill="#111D2A" d="M118.57 48.269s9.575 2.955 10.29 23.33c.711 20.375-.409 27.507-2.854 27.2-2.445-.304-2.187-10.798-2.187-10.798s-5.25 1.529-6.473-11.104c-1.222-12.633 1.02-16.504-1.019-16.607-2.037-.101-14.058 1.02-15.485-.101-1.426-1.121 9.577-13.244 9.882-13.142.306.102 7.845 1.222 7.845 1.222" mask="url(#r)"/>
        </g>
        <g transform="translate(0 -.94)">
            <mask id="t" fill="#fff">
                <use xlink:href="#s"/>
            </mask>
            <path fill="#111D2A" d="M40.801 46.797s-9.576 2.954-10.29 23.329c-.712 20.375.408 27.507 2.853 27.2 2.445-.304 2.187-10.798 2.187-10.798s5.25 1.529 6.473-11.104c1.222-12.633-1.019-16.504 1.02-16.606 2.036-.102 14.057 1.019 15.484-.102 1.426-1.12-9.577-13.244-9.882-13.142-.306.102-7.845 1.223-7.845 1.223" mask="url(#t)"/>
        </g>
        <g transform="translate(0 -.94)">
            <mask id="v" fill="#fff">
                <use xlink:href="#u"/>
            </mask>
            <path fill="#010202" d="M85.481 25.93s-42-3.706-46.94 16.882C33.6 63.4 71.07 63.4 99.07 60.929s34.177-20.176 27.588-33.353c-6.588-13.175-20.177-17.293-21.823-16.47-1.647.824.412 9.883.412 9.883s-11.118-6.588-11.53-5.354c-.412 1.235-2.063 10.546-8.236 10.295" mask="url(#v)"/>
        </g>
        <g transform="translate(0 -.94)">
            <mask id="x" fill="#fff">
                <use xlink:href="#w"/>
            </mask>
            <path fill="#CA583C" d="M69.488 103.837h20.48s-2.622 10.649-10.24 10.649c-7.619 0-10.24-10.65-10.24-10.65" mask="url(#x)"/>
        </g>
    </g>
</svg>
