<svg xmlns="http://www.w3.org/2000/svg" xmlns:xlink="http://www.w3.org/1999/xlink" width="159" height="159" viewBox="0 0 159 159">
    <defs>
        <path id="a" d="M.994 80.051c0 43.826 35.528 79.354 79.354 79.354 43.827 0 79.355-35.528 79.355-79.354 0-43.827-35.528-79.356-79.355-79.356C36.522.695.994 36.224.994 80.051"/>
        <path id="c" d="M.994 80.051c0 43.826 35.528 79.354 79.354 79.354 43.827 0 79.355-35.528 79.355-79.354 0-43.827-35.528-79.356-79.355-79.356C36.522.695.994 36.224.994 80.051"/>
        <path id="e" d="M.994 80.051c0 43.826 35.528 79.354 79.354 79.354 43.827 0 79.355-35.528 79.355-79.354 0-43.827-35.528-79.356-79.355-79.356C36.522.695.994 36.224.994 80.051"/>
        <path id="g" d="M.994 80.051c0 43.826 35.528 79.354 79.354 79.354 43.827 0 79.355-35.528 79.355-79.354 0-43.827-35.528-79.356-79.355-79.356C36.522.695.994 36.224.994 80.051"/>
        <path id="i" d="M.994 80.051c0 43.826 35.528 79.354 79.354 79.354 43.827 0 79.355-35.528 79.355-79.354 0-43.827-35.528-79.356-79.355-79.356C36.522.695.994 36.224.994 80.051"/>
        <path id="k" d="M.994 80.051c0 43.826 35.528 79.354 79.354 79.354 43.827 0 79.355-35.528 79.355-79.354 0-43.827-35.528-79.356-79.355-79.356C36.522.695.994 36.224.994 80.051z"/>
        <path id="m" d="M52.583.828l-36.731.86C7.403 1.887.673 11.24.821 22.586c.147 11.343 7.123 20.378 15.565 20.181l36.73-.861c8.449-.198 15.179-9.551 15.033-20.897C68.002 9.788 61.173.825 52.855.825c-.091 0-.181.001-.272.003z"/>
        <path id="o" d="M.994 80.051c0 43.826 35.528 79.354 79.354 79.354 43.827 0 79.355-35.528 79.355-79.354 0-43.827-35.528-79.356-79.355-79.356C36.522.695.994 36.224.994 80.051"/>
        <path id="q" d="M.848 16.929c0 9.3 7.54 16.841 16.84 16.841s16.84-7.541 16.84-16.841c0-9.301-7.54-16.84-16.84-16.84S.848 7.628.848 16.929z"/>
        <path id="s" d="M.994 80.051c0 43.826 35.528 79.354 79.354 79.354 43.827 0 79.355-35.528 79.355-79.354 0-43.827-35.528-79.356-79.355-79.356C36.522.695.994 36.224.994 80.051"/>
        <path id="u" d="M.91 14.294c.899 4.056 4.172 7.329 8.229 8.229 9.265 2.055 17.159-7.549 11.84-16.971a8.203 8.203 0 0 0-3.096-3.096c-2.107-1.19-4.225-1.719-6.218-1.72C4.747.736-.683 7.101.91 14.294z"/>
        <path id="w" d="M.994 80.051c0 43.826 35.528 79.354 79.354 79.354 43.827 0 79.355-35.528 79.355-79.354 0-43.827-35.528-79.356-79.355-79.356C36.522.695.994 36.224.994 80.051"/>
        <path id="y" d="M.976 11.77c0 6.094 4.94 11.033 11.033 11.033 6.094 0 11.033-4.939 11.033-11.033 0-6.094-4.939-11.033-11.033-11.033C5.916.737.976 5.676.976 11.77z"/>
        <path id="A" d="M.994 80.051c0 43.826 35.528 79.354 79.354 79.354 43.827 0 79.355-35.528 79.355-79.354 0-43.827-35.528-79.356-79.355-79.356C36.522.695.994 36.224.994 80.051"/>
        <path id="C" d="M.994 80.051c0 43.826 35.528 79.354 79.354 79.354 43.827 0 79.355-35.528 79.355-79.354 0-43.827-35.528-79.356-79.355-79.356C36.522.695.994 36.224.994 80.051"/>
        <path id="E" d="M.994 80.051c0 43.826 35.528 79.354 79.354 79.354 43.827 0 79.355-35.528 79.355-79.354 0-43.827-35.528-79.356-79.355-79.356C36.522.695.994 36.224.994 80.051"/>
        <path id="G" d="M.994 80.051c0 43.826 35.528 79.354 79.354 79.354 43.827 0 79.355-35.528 79.355-79.354 0-43.827-35.528-79.356-79.355-79.356C36.522.695.994 36.224.994 80.051"/>
        <path id="I" d="M.994 80.051c0 43.826 35.528 79.354 79.354 79.354 43.827 0 79.355-35.528 79.355-79.354 0-43.827-35.528-79.356-79.355-79.356C36.522.695.994 36.224.994 80.051z"/>
        <path id="K" d="M.425 16.808h36.279C35.823 7.565 28.037.337 18.564.337S1.307 7.565.425 16.808z"/>
        <path id="M" d="M.994 80.051c0 43.826 35.528 79.354 79.354 79.354 43.827 0 79.355-35.528 79.355-79.354 0-43.827-35.528-79.356-79.355-79.356C36.522.695.994 36.224.994 80.051"/>
    </defs>
    <g fill="none" fill-rule="evenodd">
        <path fill="#F8F8F9" d="M158.326 79.496c0 43.618-35.359 78.978-78.979 78.978C35.73 158.474.37 123.114.37 79.496.37 35.877 35.73.517 79.347.517c43.62 0 78.98 35.36 78.98 78.98"/>
        <g transform="translate(-1 -1.58)">
            <mask id="b" fill="#fff">
                <use xlink:href="#a"/>
            </mask>
            <path fill="#262F6E" d="M104.086 170.3H56.642c-7.423 0-13.442-6.018-13.442-13.441V136.56c0-7.424 6.02-13.442 13.442-13.442h47.444c7.423 0 13.44 6.018 13.44 13.442v20.298c0 7.423-6.017 13.44-13.44 13.44" mask="url(#b)"/>
        </g>
        <g transform="translate(-1 -1.58)">
            <mask id="d" fill="#fff">
                <use xlink:href="#c"/>
            </mask>
            <path fill="#2C1811" d="M74.65 111.5h11.428a6.546 6.546 0 0 1 6.545 6.545v22.12a6.546 6.546 0 0 1-6.545 6.545H74.65a6.546 6.546 0 0 1-6.546-6.546v-22.119a6.546 6.546 0 0 1 6.546-6.546" mask="url(#d)"/>
        </g>
        <g transform="translate(-1 -1.58)">
            <mask id="f" fill="#fff">
                <use xlink:href="#e"/>
            </mask>
            <path fill="#2C1811" d="M48.11 97.092c0 5.445-4.413 9.859-9.858 9.859-5.446 0-9.86-4.414-9.86-9.86 0-5.444 4.414-9.858 9.86-9.858 5.445 0 9.859 4.414 9.859 9.859" mask="url(#f)"/>
        </g>
        <g transform="translate(-1 -1.58)">
            <mask id="h" fill="#fff">
                <use xlink:href="#g"/>
            </mask>
            <path fill="#2C1811" d="M129.992 97.092c0 5.445-4.414 9.859-9.858 9.859-5.446 0-9.86-4.414-9.86-9.86 0-5.444 4.414-9.858 9.86-9.858 5.444 0 9.858 4.414 9.858 9.859" mask="url(#h)"/>
        </g>
        <g transform="translate(-1 -1.58)">
            <mask id="j" fill="#fff">
                <use xlink:href="#i"/>
            </mask>
            <path fill="#432514" d="M125.346 85.93c0 24.845-20.14 44.983-44.982 44.983-24.843 0-44.982-20.138-44.982-44.982 0-24.843 20.139-44.981 44.982-44.981 24.842 0 44.982 20.138 44.982 44.98" mask="url(#j)"/>
        </g>
        <g transform="translate(-1 -1.58)">
            <mask id="l" fill="#fff">
                <use xlink:href="#k"/>
            </mask>
            <path fill="#474749" d="M107.117 66.905c8.448-.197 15.178-9.55 15.031-20.896-.147-11.344-7.124-20.379-15.566-20.18l-36.73.86c-8.45.197-15.179 9.551-15.032 20.897.148 11.342 7.124 20.378 15.566 20.18l36.73-.86z" mask="url(#l)"/>
        </g>
        <g transform="translate(53 23.42)">
            <mask id="n" fill="#fff">
                <use xlink:href="#m"/>
            </mask>
            <path fill="#474749" d="M-1016 692H323.691V-541.422H-1016z" mask="url(#n)"/>
        </g>
        <g transform="translate(-1 -1.58)">
            <mask id="p" fill="#fff">
                <use xlink:href="#o"/>
            </mask>
            <path fill="#474749" d="M46.688 67.77c9.3 0 16.84-7.54 16.84-16.841 0-9.301-7.54-16.84-16.84-16.84s-16.84 7.539-16.84 16.84c0 9.3 7.54 16.84 16.84 16.84" mask="url(#p)"/>
        </g>
        <g transform="translate(28 32.42)">
            <mask id="r" fill="#fff">
                <use xlink:href="#q"/>
            </mask>
            <path fill="#474749" d="M-991 683H348.691V-550.422H-991z" mask="url(#r)"/>
        </g>
        <g transform="translate(-1 -1.58)">
            <mask id="t" fill="#fff">
                <use xlink:href="#s"/>
            </mask>
            <path fill="#717375" d="M123.139 78.522c9.265 2.055 17.159-7.549 11.84-16.97a8.213 8.213 0 0 0-3.096-3.096c-9.421-5.32-19.025 2.572-16.973 11.837.9 4.056 4.172 7.33 8.229 8.23" mask="url(#t)"/>
        </g>
        <g transform="translate(113 54.42)">
            <mask id="v" fill="#fff">
                <use xlink:href="#u"/>
            </mask>
            <path fill="#717375" d="M-1076 661H263.691V-572.422H-1076z" mask="url(#v)"/>
        </g>
        <g transform="translate(-1 -1.58)">
            <mask id="x" fill="#fff">
                <use xlink:href="#w"/>
            </mask>
            <path fill="#474749" d="M31.009 78.803c6.094 0 11.033-4.94 11.033-11.033 0-6.094-4.939-11.033-11.033-11.033-6.094 0-11.033 4.939-11.033 11.033 0 6.094 4.939 11.033 11.033 11.033" mask="url(#x)"/>
        </g>
        <g transform="translate(18 54.42)">
            <mask id="z" fill="#fff">
                <use xlink:href="#y"/>
            </mask>
            <path fill="#474749" d="M-981 661H358.691V-572.422H-981z" mask="url(#z)"/>
        </g>
        <g>
            <g transform="translate(-1 -1.58)">
                <mask id="B" fill="#fff">
                    <use xlink:href="#A"/>
                </mask>
                <path fill="#010202" d="M63.779 89.587a6.462 6.462 0 1 1-12.925 0 6.462 6.462 0 0 1 12.925 0" mask="url(#B)"/>
            </g>
            <g transform="translate(-1 -1.58)">
                <mask id="D" fill="#fff">
                    <use xlink:href="#C"/>
                </mask>
                <path fill="#010202" d="M109.873 89.587a6.463 6.463 0 1 1-12.926-.002 6.463 6.463 0 0 1 12.926.002" mask="url(#D)"/>
            </g>
            <g transform="translate(-1 -1.58)">
                <mask id="F" fill="#fff">
                    <use xlink:href="#E"/>
                </mask>
                <path fill="#CA583C" d="M70.109 106.484h20.479s-2.621 10.648-10.24 10.648c-7.618 0-10.24-10.648-10.24-10.648" mask="url(#F)"/>
            </g>
            <g transform="translate(-1 -1.58)">
                <mask id="H" fill="#fff">
                    <use xlink:href="#G"/>
                </mask>
                <path fill="#2C1811" d="M86.884 93.96a6.536 6.536 0 1 1-13.071 0 6.536 6.536 0 0 1 13.071 0" mask="url(#H)"/>
            </g>
            <g transform="translate(-1 -1.58)">
                <mask id="J" fill="#fff">
                    <use xlink:href="#I"/>
                </mask>
                <path fill="#474749" d="M62.425 111.808c.882-9.242 8.666-16.471 18.14-16.471 9.472 0 17.257 7.229 18.139 16.47H62.425z" mask="url(#J)"/>
            </g>
        </g>
        <g transform="translate(61 93.42)">
            <mask id="L" fill="#fff">
                <use xlink:href="#K"/>
            </mask>
            <path fill="#474749" d="M-161.828 519.423h808.46v-744.329h-808.46z" mask="url(#L)"/>
            <path fill="#474749" d="M-1.328 18.56h39.784V-1.415H-1.328z" mask="url(#L)"/>
        </g>
        <g transform="translate(-1 -1.58)">
            <mask id="N" fill="#fff">
                <use xlink:href="#M"/>
            </mask>
            <path fill="#474749" d="M138.065 65.955c0 7.784-6.311 14.096-14.096 14.096s-14.095-6.312-14.095-14.096c0-7.785 6.31-14.096 14.095-14.096 7.785 0 14.096 6.311 14.096 14.096" mask="url(#N)"/>
        </g>
    </g>
</svg>
