<?xml version="1.0" encoding="UTF-8"?>
<svg width="512px" height="490px" viewBox="0 0 512 490" version="1.1" xmlns="http://www.w3.org/2000/svg" xmlns:xlink="http://www.w3.org/1999/xlink">
    <!-- Generator: Sketch 52.4 (67378) - http://www.bohemiancoding.com/sketch -->
    <title>sms</title>
    <desc>Created with Sketch.</desc>
    <g id="Page-1" stroke="none" stroke-width="1" fill="none" fill-rule="evenodd">
        <g id="sms">
            <circle id="Oval" fill="#FFAF10" cx="256" cy="245" r="245"></circle>
            <path d="M142.464,212.196 L7,212.196 C3.15,212.196 0,215.346 0,219.196 L0,345.167 C0,349.017 3.15,352.167 7,352.167 L83.1,352.167 L95.636,373.878 C97.561,377.212 100.711,377.212 102.636,373.878 L115.172,352.167 L142.464,352.167 L142.464,212.196 Z" id="Path" fill="#FE3745"></path>
            <path d="M19.842,345.167 L19.842,219.196 C19.842,215.346 22.992,212.196 26.842,212.196 L7,212.196 C3.15,212.196 0,215.346 0,219.196 L0,345.167 C0,349.017 3.15,352.167 7,352.167 L26.842,352.167 C22.992,352.167 19.842,349.017 19.842,345.167 Z" id="Path" fill="#B7092B"></path>
            <g id="Group" transform="translate(41.000000, 245.000000)" fill="#FFFFFF">
                <path d="M101.463,0.5 L8.135,0.5 C3.993,0.5 0.635,3.858 0.635,8 C0.635,12.142 3.993,15.5 8.135,15.5 L101.463,15.5 L101.463,0.5 Z" id="Path"></path>
                <path d="M101.463,27.499 L8.135,27.499 C3.993,27.499 0.635,30.857 0.635,34.999 C0.635,39.141 3.993,42.499 8.135,42.499 L101.463,42.499 L101.463,27.499 Z" id="Path"></path>
                <path d="M64.151,69.497 L8.135,69.497 C3.993,69.497 0.635,66.139 0.635,61.997 C0.635,57.855 3.993,54.497 8.135,54.497 L64.151,54.497 C68.293,54.497 71.651,57.855 71.651,61.997 C71.651,66.139 68.294,69.497 64.151,69.497 Z" id="Path"></path>
            </g>
            <path d="M319.042,144.009 C315.733,144.009 313.042,141.318 313.042,138.009 L313.042,38.096 L151.463,38.096 C145.963,38.096 141.463,42.596 141.463,48.096 L141.463,438.964 C141.463,444.464 145.963,448.964 151.463,448.964 L360.537,448.964 C366.037,448.964 370.537,444.464 370.537,438.964 L370.537,144.009 L319.042,144.009 Z" id="Path" fill="#445EA0"></path>
            <path d="M161.305,438.964 L161.305,48.096 C161.305,42.596 165.805,38.096 171.305,38.096 L151.463,38.096 C145.963,38.096 141.463,42.596 141.463,48.096 L141.463,438.964 C141.463,444.464 145.963,448.964 151.463,448.964 L171.305,448.964 C165.805,448.964 161.305,444.464 161.305,438.964 Z" id="Path" fill="#293D7C"></path>
            <path d="M319.042,144.009 C315.733,144.009 313.042,141.318 313.042,138.009 L313.042,94.446 L141.463,94.446 L141.463,392.615 L370.537,392.615 L370.537,144.009 L319.042,144.009 Z" id="Path" fill="#EEF6FF"></path>
            <rect id="Rectangle" fill="#D9EAFC" x="141.46" y="94.44" width="19.842" height="298.17"></rect>
            <path d="M279.65,428.815 C279.65,431.565 277.4,433.815 274.65,433.815 L237.349,433.815 C234.599,433.815 232.349,431.565 232.349,428.815 L232.349,412.092 C232.349,409.342 234.599,407.092 237.349,407.092 L274.65,407.092 C277.4,407.092 279.65,409.342 279.65,412.092 L279.65,428.815 Z" id="Path" fill="#293D7C"></path>
            <path d="M252.191,428.815 L252.191,412.092 C252.191,409.342 254.441,407.092 257.191,407.092 L237.349,407.092 C234.599,407.092 232.349,409.342 232.349,412.092 L232.349,428.815 C232.349,431.565 234.599,433.815 237.349,433.815 L257.191,433.815 C254.441,433.815 252.191,431.565 252.191,428.815 Z" id="Path" fill="#1A2B63"></path>
            <path d="M286.922,73.112 C286.922,75.862 284.672,78.112 281.922,78.112 L230.078,78.112 C227.328,78.112 225.078,75.862 225.078,73.112 L225.078,64.934 C225.078,62.184 227.328,59.934 230.078,59.934 L281.922,59.934 C284.672,59.934 286.922,62.184 286.922,64.934 L286.922,73.112 Z" id="Path" fill="#293D7C"></path>
            <path d="M244.92,73.112 L244.92,64.934 C244.92,62.184 247.17,59.934 249.92,59.934 L230.078,59.934 C227.328,59.934 225.078,62.184 225.078,64.934 L225.078,73.112 C225.078,75.862 227.328,78.112 230.078,78.112 L249.92,78.112 C247.17,78.112 244.92,75.862 244.92,73.112 Z" id="Path" fill="#1A2B63"></path>
            <path d="M194.8,69.023 C194.8,74.044 190.731,78.112 185.711,78.112 C180.69,78.112 176.622,74.044 176.622,69.023 C176.622,64.002 180.69,59.934 185.711,59.934 C190.731,59.935 194.8,64.003 194.8,69.023 Z" id="Path" fill="#293D7C"></path>
            <path d="M346.132,340.48 L311.5,340.48 L311.5,375.624 L346.132,375.624 C348.882,375.624 351.132,373.374 351.132,370.624 L351.132,345.48 C351.132,342.73 348.882,340.48 346.132,340.48 Z" id="Path" fill="#FFAF10"></path>
            <path d="M165.867,340.48 C163.117,340.48 160.867,342.73 160.867,345.48 L160.867,370.624 C160.867,373.374 163.117,375.624 165.867,375.624 L312.5,375.624 L312.5,340.48 L165.867,340.48 Z" id="Path" fill="#91E0E8"></path>
            <path d="M180.71,370.624 L180.71,345.48 C180.71,342.73 182.96,340.48 185.71,340.48 L165.868,340.48 C163.118,340.48 160.868,342.73 160.868,345.48 L160.868,370.624 C160.868,373.374 163.118,375.624 165.868,375.624 L185.71,375.624 C182.96,375.624 180.71,373.374 180.71,370.624 Z" id="Path" fill="#5DC1D8"></path>
            <path d="M304.441,174.518 C304.441,177.268 302.191,179.518 299.441,179.518 L165.867,179.518 C163.117,179.518 160.867,177.268 160.867,174.518 L160.867,124.918 C160.867,122.168 163.117,119.918 165.867,119.918 L299.441,119.918 C302.191,119.918 304.441,122.168 304.441,124.918 L304.441,174.518 Z" id="Path" fill="#FFE2B8"></path>
            <path d="M180.71,174.518 L180.71,124.918 C180.71,122.168 182.96,119.918 185.71,119.918 L165.868,119.918 C163.118,119.918 160.868,122.168 160.868,124.918 L160.868,174.518 C160.868,177.268 163.118,179.518 165.868,179.518 L185.71,179.518 C182.96,179.518 180.71,177.268 180.71,174.518 Z" id="Path" fill="#FFC987"></path>
            <path d="M351.132,247.121 C351.132,249.871 348.882,252.121 346.132,252.121 L212.559,252.121 C209.809,252.121 207.559,249.871 207.559,247.121 L207.559,197.521 C207.559,194.771 209.809,192.521 212.559,192.521 L346.132,192.521 C348.882,192.521 351.132,194.771 351.132,197.521 L351.132,247.121 Z" id="Path" fill="#91E0E8"></path>
            <path d="M227.401,247.121 L227.401,197.521 C227.401,194.771 229.651,192.521 232.401,192.521 L212.559,192.521 C209.809,192.521 207.559,194.771 207.559,197.521 L207.559,247.121 C207.559,249.871 209.809,252.121 212.559,252.121 L232.401,252.121 C229.651,252.121 227.401,249.871 227.401,247.121 Z" id="Path" fill="#5DC1D8"></path>
            <path d="M304.441,319.726 C304.441,322.476 302.191,324.726 299.441,324.726 L165.867,324.726 C163.117,324.726 160.867,322.476 160.867,319.726 L160.867,270.126 C160.867,267.376 163.117,265.126 165.867,265.126 L299.441,265.126 C302.191,265.126 304.441,267.376 304.441,270.126 L304.441,319.726 Z" id="Path" fill="#FFE2B8"></path>
            <path d="M180.71,319.726 L180.71,270.126 C180.71,267.376 182.96,265.126 185.71,265.126 L165.868,265.126 C163.118,265.126 160.868,267.376 160.868,270.126 L160.868,319.726 C160.868,322.476 163.118,324.726 165.868,324.726 L185.71,324.726 C182.96,324.726 180.71,322.476 180.71,319.726 Z" id="Path" fill="#FFC987"></path>
            <path d="M505,5.038 L319.042,5.038 C315.192,5.038 312.042,8.188 312.042,12.038 L312.042,138.009 C312.042,141.859 315.192,145.009 319.042,145.009 L393.585,145.009 L408.521,170.879 C410.446,174.213 413.596,174.213 415.521,170.879 L430.457,145.009 L505,145.009 C508.85,145.009 512,141.859 512,138.009 L512,12.038 C512,8.188 508.85,5.038 505,5.038 Z" id="Path" fill="#16D416"></path>
            <path d="M331.884,138.009 L331.884,12.038 C331.884,8.188 335.034,5.038 338.884,5.038 L319.042,5.038 C315.192,5.038 312.042,8.188 312.042,12.038 L312.042,138.009 C312.042,141.859 315.192,145.009 319.042,145.009 L338.884,145.009 C335.034,145.009 331.884,141.859 331.884,138.009 Z" id="Path" fill="#069206"></path>
            <path d="M348.395,52.5 L358.925,52.5 L358.925,89.42 L381.74,89.42 L381.74,98 L348.395,98 L348.395,52.5 Z M387.655,52.5 L398.185,52.5 L398.185,98 L387.655,98 L387.655,52.5 Z M450.705,52.5 L450.705,98 L442.06,98 L419.375,70.375 L419.375,98 L408.975,98 L408.975,52.5 L417.685,52.5 L440.305,80.125 L440.305,52.5 L450.705,52.5 Z M496.725,89.55 L496.725,98 L461.495,98 L461.495,52.5 L495.88,52.5 L495.88,60.95 L471.96,60.95 L471.96,70.83 L493.085,70.83 L493.085,79.02 L471.96,79.02 L471.96,89.55 L496.725,89.55 Z" id="LINE" fill="#FFFFFF"></path>
        </g>
    </g>
</svg>